<svg xmlns="http://www.w3.org/2000/svg" xmlns:xlink="http://www.w3.org/1999/xlink" id="Layer_1" width="44.211" height="42" x="0" y="0" enable-background="new 0 0 44.211 42" version="1.1" viewBox="0 0 44.211 42" xml:space="preserve"><metadata><sfw xmlns="http://ns.adobe.com/SaveForWeb/1.0/"><slices/><sliceSourceBounds width="1387.212" height="339.173" x="-147" y="-586" bottomLeftOrigin="true"/></sfw></metadata><g><path fill="#20c3c4" d="M18.158,26.211h9.474v3.948h-9.474V26.211z M2.367,25.421h3.158v5.525H2.367V25.421z M7.895,25.421h3.158 v5.525H7.895V25.421z M34.736,23.843h7.105v8.685h-7.105V23.843z M18.158,18.316h9.474v3.947h-9.474V18.316z M2.367,15.947h3.158 v5.526H2.367V15.947z M7.895,15.947h3.158v5.526H7.895V15.947z M34.736,12.001h7.105v8.684h-7.105V12.001z M18.158,10.422h9.474 v3.947h-9.474V10.422z M18.158,2.526h9.474v3.947h-9.474V2.526z M15.852,0l-0.062,37.264h-2.368V12.791H0V42h44.211V8.842H32.369 v28.422H30L30.063,0H15.852z"/></g></svg>