<svg xmlns="http://www.w3.org/2000/svg" xmlns:xlink="http://www.w3.org/1999/xlink" id="Layer_1" width="52.003" height="42" x="0" y="0" enable-background="new 0 0 52.003 42" version="1.1" viewBox="0 0 52.003 42" xml:space="preserve"><metadata><sfw xmlns="http://ns.adobe.com/SaveForWeb/1.0/"><slices/><sliceSourceBounds width="1387.212" height="339.173" x="-147" y="-586" bottomLeftOrigin="true"/></sfw></metadata><g><g><defs><rect id="SVGID_9_" width="52.003" height="42"/></defs><clipPath id="SVGID_2_"><use overflow="visible" xlink:href="#SVGID_9_"/></clipPath><path fill="#20c3c4" d="M31.613,22.795c0.054,0.278,0.145,0.505,0.264,0.692 c0.113,0.806,0.624,1.209,1.531,1.209h17.074c1.002,0,1.521-0.528,1.521-1.582v-0.94c0-1.054-0.519-1.582-1.521-1.582H35.307 l-3.699-19.3C31.438,0.43,30.984,0,30.25,0c-0.146,0-0.305,0.017-0.473,0.051l-0.908,0.185c-0.702,0.142-1.107,0.485-1.229,1.021 c-0.053,0.138-0.098,0.287-0.127,0.459l-4.893,27.582l-1.413-7.316c-0.168-0.853-0.616-1.275-1.337-1.285 c-0.189-0.068-0.412-0.103-0.665-0.103H1.557C0.518,20.594,0,21.121,0,22.175v0.942c0,1.053,0.518,1.581,1.557,1.581h16.059 l2.947,15.265c0.031,0.153,0.074,0.289,0.123,0.413c-0.014,0.778,0.418,1.259,1.305,1.419l0.912,0.163 c0.154,0.029,0.3,0.042,0.434,0.042c0.76,0,1.217-0.436,1.364-1.286l4.974-28.04L31.613,22.795z" clip-path="url(#SVGID_2_)"/></g></g></svg>