<svg xmlns="http://www.w3.org/2000/svg" xmlns:xlink="http://www.w3.org/1999/xlink" id="Layer_1" width="58.912" height="42" x="0" y="0" enable-background="new 0 0 58.912 42" version="1.1" viewBox="0 0 58.912 42" xml:space="preserve"><metadata><sfw xmlns="http://ns.adobe.com/SaveForWeb/1.0/"><slices/><sliceSourceBounds width="1387.212" height="339.173" x="-147" y="-586" bottomLeftOrigin="true"/></sfw></metadata><g><g><defs><rect id="SVGID_29_" width="58.912" height="42"/></defs><clipPath id="SVGID_2_"><use overflow="visible" xlink:href="#SVGID_29_"/></clipPath><path fill="#20c3c4" d="M58.912,8.729L26.183,0L0,14.363l7.871,2.709 c0.047,1.084,0.107,2.904,0.108,5.094C6.832,22.557,6,23.629,6,24.91c0,1.23,0.767,2.275,1.846,2.701 c-0.145,2.744-0.424,5.58-0.938,8.025c3.273,0.184,4.91,0,4.91,0s-0.672-3.295-1.342-8.283c0.805-0.518,1.342-1.416,1.342-2.443 c0-1.27-0.818-2.34-1.953-2.736c-0.148-1.453-0.283-2.977-0.396-4.551L39.091,27.82L58.912,8.729z" clip-path="url(#SVGID_2_)"/><path fill="#20c3c4" d="M44.001,25.273l-4.776,4.496L18,22c0,0-1.818,1.818-2,4.727 c-0.182,2.91,0,6.91,0,6.91s4.909-1.273,7.637,0S35.092,40.363,35.819,42c2.364-1.998,9.091-8.727,9.091-8.727 s1.462-4.895,0-7.271L44.001,25.273z" clip-path="url(#SVGID_2_)"/></g></g></svg>