<svg xmlns="http://www.w3.org/2000/svg" xmlns:xlink="http://www.w3.org/1999/xlink" id="Layer_1" width="31.423" height="42" x="0" y="0" enable-background="new 0 0 31.423 42" version="1.1" viewBox="0 0 31.423 42" xml:space="preserve"><metadata><sfw xmlns="http://ns.adobe.com/SaveForWeb/1.0/"><slices/><sliceSourceBounds width="1387.212" height="339.173" x="-147" y="-586" bottomLeftOrigin="true"/></sfw></metadata><g><g><defs><rect id="SVGID_7_" width="31.422" height="42"/></defs><clipPath id="SVGID_2_"><use overflow="visible" xlink:href="#SVGID_7_"/></clipPath><path fill="#20c3c4" d="M28.428,38.369H3.242V5.453h6.648v1.951h12.426V5.453h6.111V38.369z M29.428,3.77h-7.111V1.612h-4.602c0-0.89-0.722-1.612-1.612-1.612c-0.888,0-1.61,0.723-1.61,1.612H9.892V3.77H1.996 c0,0-1.996,0-1.996,1.994v34.241C0,40.005,0,42,1.996,42h27.432c0,0,1.994,0,1.994-1.995V5.765 C31.424,5.765,31.424,3.77,29.428,3.77 M17.118,17.94l-0.628,5.485c-0.044,0.394-0.306,0.643-0.672,0.643 c-0.363,0-0.626-0.249-0.671-0.643l-0.627-5.485c-0.044-0.422,0.19-0.744,0.585-0.744h1.427 C16.928,17.197,17.16,17.519,17.118,17.94 M17.088,26.298c0,0.7-0.539,1.24-1.27,1.24c-0.729,0-1.27-0.54-1.27-1.24v-0.027 c0-0.701,0.541-1.24,1.27-1.24c0.73,0,1.27,0.539,1.27,1.24V26.298z M14.783,12.319l-8.79,8.789c-0.596,0.597-0.596,1.563,0,2.16 l8.79,8.79c0.596,0.596,1.562,0.596,2.159,0l8.791-8.79c0.595-0.597,0.595-1.563,0-2.16l-8.791-8.789 C16.346,11.724,15.379,11.724,14.783,12.319" clip-path="url(#SVGID_2_)"/></g></g></svg>