<svg xmlns="http://www.w3.org/2000/svg" xmlns:xlink="http://www.w3.org/1999/xlink" id="Layer_1" width="61.484" height="33.6" x="0" y="0" enable-background="new 0 0 61.484 33.6" version="1.1" viewBox="0 0 61.484 33.6" xml:space="preserve"><metadata><sfw xmlns="http://ns.adobe.com/SaveForWeb/1.0/"><slices/><sliceSourceBounds width="1387.212" height="339.173" x="-147" y="-586" bottomLeftOrigin="true"/></sfw></metadata><g><rect width="15.372" height="28.115" x="34.617" y=".155" fill="#20c3c4" transform="matrix(0.0887 -0.9961 0.9961 0.0887 24.3947 55.088)"/><g><defs><rect id="SVGID_21_" width="61.484" height="33.6"/></defs><clipPath id="SVGID_2_"><use overflow="visible" xlink:href="#SVGID_21_"/></clipPath><path fill="#20c3c4" d="M56.539,24.212l-30.018-2.679l1.547-17.322l30.017,2.677L56.539,24.212z M16.158,0l-1.127,12.657c1.883,1.711,3.101,4.145,3.153,6.881c3.079,0.179,5.644,2.205,6.626,4.987l34.574,3.083l2.1-23.567 L16.158,0z" clip-path="url(#SVGID_2_)"/><path fill="#20c3c4" d="M18.129,20.442c-0.301,3.977-3.011,7.241-6.695,8.373 c0.791,2.757,3.304,4.784,6.314,4.784c3.645,0,6.6-2.953,6.6-6.598C24.346,23.488,21.592,20.643,18.129,20.442" clip-path="url(#SVGID_2_)"/><path fill="#20c3c4" d="M17.293,19.722c0,4.773-3.872,8.645-8.645,8.645 C3.871,28.366,0,24.495,0,19.722c0-4.777,3.871-8.648,8.646-8.648C13.42,11.075,17.293,14.946,17.293,19.722" clip-path="url(#SVGID_2_)"/></g></g></svg>