<svg xmlns="http://www.w3.org/2000/svg" xmlns:xlink="http://www.w3.org/1999/xlink" id="Layer_1" x="0" y="0" enable-background="new 0 0 566.9 566.9" version="1.1" viewBox="0 0 566.9 566.9" xml:space="preserve"><style type="text/css">.st0{stroke:url(#SVGID_1_);stroke-width:20.8819;stroke-dasharray:104.4097,41.7639,41.7639,73.0868}.st0,.st1,.st2{fill:none;stroke-linecap:round;stroke-linejoin:round;stroke-miterlimit:1}.st1{stroke:url(#SVGID_2_);stroke-width:18.0619;stroke-dasharray:90.3095,36.1238,36.1238,63.2167}.st2{stroke:url(#SVGID_3_);stroke-width:14.6219;stroke-dasharray:73.1094,29.2437,29.2437,51.1766}.st3{fill:#03aee5}.st4{font-family:&apos;Anton-Regular&apos;}.st5{font-size:200px}.st6{letter-spacing:30}</style><g><linearGradient id="SVGID_1_" x1="29.999" x2="522.812" y1="212.478" y2="212.478" gradientTransform="matrix(0.9823 -0.1872 -0.1872 -0.9823 72.046 551.4588)" gradientUnits="userSpaceOnUse"><stop offset="0" stop-color="#00AEEF"/><stop offset="1" stop-color="#8DC63F"/></linearGradient><path d="M506.6,94.8C445.7,38.2,361.4,14,279.8,29.5C139,56.4,45.2,194.3,72,335.2S236.8,569.8,377.6,543 c28.5-5.4,55.9-15.6,81.1-30" class="st0"/><linearGradient id="SVGID_2_" x1="215.434" x2="641.721" y1="778.692" y2="778.692" gradientTransform="matrix(0.933 -0.3598 -0.3598 -0.933 190.5583 1178.6086)" gradientUnits="userSpaceOnUse"><stop offset="0" stop-color="#00AEEF"/><stop offset="1" stop-color="#8DC63F"/></linearGradient><path d="M452.5,99.5c-60.5-38.7-136-46.3-203.1-20.4C133.7,123.7,75.2,255.6,119.8,371.3S296.3,545.5,412,500.9 c23.4-9,45.2-21.9,64.4-38.1" class="st1"/><linearGradient id="SVGID_3_" x1="588.374" x2="933.346" y1="1233.702" y2="1233.702" gradientTransform="matrix(0.9454 -0.326 -0.326 -0.9454 -5.057 1717.1846)" gradientUnits="userSpaceOnUse"><stop offset="0" stop-color="#00AEEF"/><stop offset="1" stop-color="#8DC63F"/></linearGradient><path d="M432.9,146.5c-47.8-33.1-108.7-41.4-163.7-22.5c-94.9,32.7-146.1,137.7-113.3,232.6S293.7,502.8,388.6,470 c19.2-6.6,37.2-16.4,53.2-28.9" class="st2"/></g><circle cx="324.9" cy="21.9" r="15.6"/><circle cx="161.2" cy="81.5" r="15.6"/><circle cx="108.5" cy="146.2" r="15.6"/><circle cx="69" cy="313.2" r="15.6"/><circle cx="359.8" cy="115.7" r="9.2"/><circle cx="301.7" cy="116.1" r="9.2"/><circle cx="194.4" cy="172" r="9.2"/><circle cx="163.3" cy="219.9" r="9.2"/><circle cx="151.2" cy="341.4" r="9.2"/><circle cx="173.6" cy="394" r="9.2"/><circle cx="268.5" cy="469.5" r="9.2"/><circle cx="325.8" cy="480" r="9.2"/><circle cx="441.9" cy="440.8" r="9.2"/><circle cx="208.3" cy="518.7" r="15.6"/><circle cx="466.1" cy="512.2" r="15.6"/><circle cx="368.4" cy="67.1" r="11.9"/><circle cx="288.1" cy="67.1" r="11.9"/><circle cx="158.9" cy="142.1" r="11.9"/><circle cx="122.5" cy="203.3" r="11.9"/><circle cx="112.9" cy="350.7" r="11.9"/><circle cx="143.7" cy="416.6" r="11.9"/><circle cx="89.3" cy="393.4" r="11.9"/><circle cx="290.4" cy="545.9" r="11.9"/><circle cx="265.2" cy="506.4" r="11.9"/><circle cx="340.2" cy="515.1" r="11.9"/><circle cx="479.8" cy="460" r="11.9"/><circle cx="406.2" cy="34.3" r="15.6"/><text class="st3 st4 st5 st6" transform="matrix(1 0 0 1 223.8725 381.476)">KP</text></svg>