<?xml version="1.0" encoding="UTF-8" standalone="no"?>
<svg
   xmlns:dc="http://purl.org/dc/elements/1.1/"
   xmlns:cc="http://creativecommons.org/ns#"
   xmlns:rdf="http://www.w3.org/1999/02/22-rdf-syntax-ns#"
   xmlns:svg="http://www.w3.org/2000/svg"
   xmlns="http://www.w3.org/2000/svg"
   viewBox="0 0 746.66803 384"
   height="384"
   width="746.66803"
   xml:space="preserve"
   id="svg2"
   version="1.1"><metadata
     id="metadata8"><rdf:RDF><cc:Work
         rdf:about=""><dc:format>image/svg+xml</dc:format><dc:type
           rdf:resource="http://purl.org/dc/dcmitype/StillImage" /></cc:Work></rdf:RDF></metadata><defs
     id="defs6"><clipPath
       id="clipPath22"
       clipPathUnits="userSpaceOnUse"><path
         id="path20"
         d="M 0,288 H 560.001 V 0 H 0 Z" /></clipPath></defs><g
     transform="matrix(1.3333333,0,0,-1.3333333,0,384)"
     id="g10"><text
       id="text14"
       style="font-variant:normal;font-weight:bold;font-stretch:normal;font-size:100px;font-family:Roboto;-inkscape-font-specification:Roboto-Bold;writing-mode:lr-tb;fill:#00ac8b;fill-opacity:1;fill-rule:nonzero;stroke:none"
       transform="matrix(1,0,0,-1,88.2876,95.9487)"><tspan
         id="tspan12"
         y="0"
         x="0 63.5">KP</tspan></text>
<g
       id="g16"><g
         clip-path="url(#clipPath22)"
         id="g18"><g
           transform="translate(55.0054,241.876)"
           id="g24"><path
             id="path26"
             style="fill:none;stroke:#00ac8b;stroke-width:6;stroke-linecap:butt;stroke-linejoin:miter;stroke-miterlimit:10;stroke-dasharray:none;stroke-opacity:1"
             d="m 0,0 c -5.858,-1.173 -11.596,2.771 -12.816,8.809 -1.22,6.038 2.541,11.883 8.399,13.056 C 1.44,23.038 7.178,19.094 8.398,13.056 9.618,7.018 5.858,1.172 0,0 Z" /></g><g
           transform="translate(90.5859,202.293)"
           id="g28"><path
             id="path30"
             style="fill:none;stroke:#00ac8b;stroke-width:11;stroke-linecap:butt;stroke-linejoin:miter;stroke-miterlimit:10;stroke-dasharray:none;stroke-opacity:1"
             d="M 0,0 -31.711,41.212" /></g><g
           transform="translate(231.1206,251.6602)"
           id="g32"><path
             id="path34"
             style="fill:none;stroke:#00ac8b;stroke-width:6;stroke-linecap:butt;stroke-linejoin:miter;stroke-miterlimit:10;stroke-dasharray:none;stroke-opacity:1"
             d="M 0,0 C -2.612,5.373 -0.242,11.92 5.293,14.623 10.829,17.326 17.434,15.161 20.045,9.788 22.657,4.415 20.287,-2.132 14.752,-4.835 9.216,-7.538 2.612,-5.373 0,0 Z" /></g><g
           transform="translate(201.7871,207.2495)"
           id="g36"><path
             id="path38"
             style="fill:none;stroke:#00ac8b;stroke-width:11;stroke-linecap:butt;stroke-linejoin:miter;stroke-miterlimit:10;stroke-dasharray:none;stroke-opacity:1"
             d="M 0,0 31.885,41.077" /></g><g
           transform="translate(28.7124,53.8652)"
           id="g40"><path
             id="path42"
             style="fill:none;stroke:#00ac8b;stroke-width:6;stroke-linecap:butt;stroke-linejoin:miter;stroke-miterlimit:10;stroke-dasharray:none;stroke-opacity:1"
             d="m 0,0 c 0.783,-5.922 -3.532,-11.387 -9.637,-12.205 -6.105,-0.818 -11.69,3.32 -12.473,9.242 -0.783,5.923 3.532,11.388 9.637,12.206 C -6.368,10.062 -0.783,5.923 0,0 Z" /></g><g
           transform="translate(70.5601,86.7529)"
           id="g44"><path
             id="path46"
             style="fill:none;stroke:#00ac8b;stroke-width:11;stroke-linecap:butt;stroke-linejoin:miter;stroke-miterlimit:10;stroke-dasharray:none;stroke-opacity:1"
             d="M 0,0 -43.218,-28.919" /></g><g
           transform="translate(247.5464,27.2939)"
           id="g48"><path
             id="path50"
             style="fill:none;stroke:#00ac8b;stroke-width:6;stroke-linecap:butt;stroke-linejoin:miter;stroke-miterlimit:10;stroke-dasharray:none;stroke-opacity:1"
             d="m 0,0 c 5.732,1.684 11.794,-1.74 13.541,-7.647 1.746,-5.909 -1.486,-12.062 -7.218,-13.745 -5.732,-1.683 -11.794,1.741 -13.54,7.648 C -8.963,-7.837 -5.732,-1.683 0,0 Z" /></g><g
           transform="translate(208.623,63.5957)"
           id="g52"><path
             id="path54"
             style="fill:none;stroke:#00ac8b;stroke-width:11;stroke-linecap:butt;stroke-linejoin:miter;stroke-miterlimit:10;stroke-dasharray:none;stroke-opacity:1"
             d="M 0,0 35.212,-38.265" /></g><g
           transform="translate(209.5474,178.2461)"
           id="g56"><path
             id="path58"
             style="fill:#00ac8b;fill-opacity:1;fill-rule:nonzero;stroke:none"
             d="M 0,0 C 3.423,1.015 6.913,1.958 10.467,2.828 7.166,7.871 3.365,12.557 -0.889,16.794 -4.901,15.863 -8.829,14.836 -12.676,13.721 -7.911,9.687 -3.653,5.077 0,0" /></g><g
           transform="translate(147.6948,209.9893)"
           id="g60"><path
             id="path62"
             style="fill:#00ac8b;fill-opacity:1;fill-rule:nonzero;stroke:none"
             d="M 0,0 C 6.184,0 12.188,-0.755 17.944,-2.146 23.255,-0.229 28.733,1.533 34.393,3.098 23.851,7.678 12.226,10.232 0,10.232 c -47.603,0 -86.206,-38.499 -86.392,-86.058 3.365,3.951 7.139,8.142 11.317,12.468 C -68.98,-27.395 -37.699,0 0,0" /></g><g
           transform="translate(75.4092,109.8164)"
           id="g64"><path
             id="path66"
             style="fill:#00ac8b;fill-opacity:1;fill-rule:nonzero;stroke:none"
             d="m 0,0 c -2.791,-3.412 -5.252,-6.595 -7.385,-9.475 2.75,-6.534 6.278,-12.661 10.471,-18.26 1.782,2.545 3.91,5.464 6.383,8.671 C 5.469,-13.243 2.269,-6.835 0,0" /></g><g
           transform="translate(214.0498,171.2061)"
           id="g68"><path
             id="path70"
             style="fill:#00ac8b;fill-opacity:1;fill-rule:nonzero;stroke:none"
             d="m 0,0 c 6.237,-11.047 9.813,-23.795 9.813,-37.385 0,-42.067 -34.102,-76.169 -76.168,-76.169 -22.911,0 -43.444,10.13 -57.407,26.139 -2.394,-3.113 -4.461,-5.95 -6.197,-8.431 15.79,-17.171 38.437,-27.939 63.604,-27.939 47.717,0 86.4,38.682 86.4,86.4 0,14.513 -3.595,28.18 -9.918,40.187 C 6.689,1.937 3.314,1 0,0" /></g><g
           transform="translate(189.4917,197.4873)"
           id="g72"><path
             id="path74"
             style="fill:#00ac8b;fill-opacity:1;fill-rule:nonzero;stroke:none"
             d="M 0,0 C 4.112,1.247 8.323,2.389 12.626,3.425 8.404,6.854 3.857,9.896 -0.97,12.488 -6.11,11.143 -11.11,9.642 -15.969,8.002 -10.302,5.96 -4.953,3.258 0,0" /></g><g
           transform="translate(71.5264,133.8213)"
           id="g76"><path
             id="path78"
             style="fill:#00ac8b;fill-opacity:1;fill-rule:nonzero;stroke:none"
             d="M 0,0 C 0,1.428 0.047,2.845 0.125,4.254 -3.59,0.222 -6.932,-3.649 -9.904,-7.273 c 0.508,-6.099 1.64,-12.018 3.35,-17.691 2.334,3.077 5.011,6.45 8.026,10.035 C 0.512,-10.101 0,-5.11 0,0" /></g></g></g><text
       id="text84"
       style="font-variant:normal;font-weight:normal;font-stretch:normal;font-size:100px;font-family:'Futura Hv BT';-inkscape-font-specification:FuturaBT-Heavy;writing-mode:lr-tb;fill:#fca521;fill-opacity:1;fill-rule:nonzero;stroke:none"
       transform="matrix(0.971805,0,0,-1,250.707,147.4819)"><tspan
         id="tspan80"
         y="0"
         x="0 90 149.5 210.5">OPEN</tspan><tspan
         id="tspan82"
         y="86"
         x="0 89.029999 170.33 234.53">DATA</tspan></text>
</g></svg>