<svg xmlns="http://www.w3.org/2000/svg" xmlns:xlink="http://www.w3.org/1999/xlink" id="Layer_1" x="0" y="0" enable-background="new 0 0 1133.9 566.9" version="1.1" viewBox="0 0 1133.9 566.9" xml:space="preserve"><style type="text/css">.st0{display:none;stroke:#000;stroke-miterlimit:10}.st1{fill:#fff}</style><rect width="1133.9" height="566.9" y="0" class="st0"/><g><g><path d="M328.1,250.9c0,40.3-12.4,86-36.6,110.2c-11.8,11.8-25.5,18-42.7,18c-41.4,0-47.6-40.1-47.6-60 c0-37.9,12.4-83.6,37.6-108.1c11-10.8,24.7-17.5,42.2-17.5C322.5,193.7,328.1,230,328.1,250.9z M266,233.2 c-15.3,15.3-23.9,64.3-23.9,91.1c0,7.8,1.3,20.2,12.6,20.2c3,0,6.2-1.6,8.9-4.3c16.4-16.4,23.7-74.2,23.7-93.6 c0-7-1.6-18.3-11.3-18.3C272.5,228.4,269.3,230,266,233.2z" class="st1"/><path d="M364.4,198.5c12.1-2.2,27.7-3.5,39.8-3.5c12.4,0,32.3,2.1,44.6,15.3c8.1,8.6,11.6,22.6,11.6,32 c0,27.4-13.4,47.1-25.5,56.7c-12.9,10.2-31.5,15.1-46.8,15.1c-2.2,0-4.6,0-7,0L369,377h-38.7L364.4,198.5z M387.6,281.6 c1.6,0,3.2,0,4.6,0c23.1,0,28.5-22.9,28.5-36.6c0-10.5-5.1-17.7-15.6-17.7c-3,0-5.6,0-7.3,0.5L387.6,281.6z" class="st1"/><path d="M550.7,299.6h-37.9l-8.6,42.2h43.6l-7,35.2H458l34.7-181.2h79.9l-7,35h-39.3l-7.5,35.5h38.4L550.7,299.6z" class="st1"/><path d="M566.9,377l34.7-181.2h36l11.8,60.8c5.1,26.3,8.1,43.8,9.1,58.1h0.5c2.1-20.2,5.6-55.4,12.1-89.5l5.6-29.3 h33.9L676,377h-33.6l-12.6-55.9c-6.5-28.2-7.5-39-9.4-61.8h-0.5c-2.1,18-6.5,51.1-13.2,86.6l-5.9,31.2H566.9z" class="st1"/><path d="M813.2,371.7c-10.8,3.8-23.1,7-38.4,7c-22.9,0-36.3-7-46-18.8c-9.4-11-14.2-28.8-14.2-44.9 c0-39,13.2-72.3,33.9-94.6c15.1-16.4,37.4-26.1,61.6-26.1c16.7,0,26.1,3,31.5,5.1L829,234.5c-4.3-2.1-12.9-4-20.4-4 c-12.1,0-20.7,3.5-27.4,10.2c-13.7,13.7-24.7,39.5-24.7,74.2c0,19.6,6.7,29.6,17.5,29.6c3.2,0,5.4,0,8.3-0.5l7-38.4h-13.2 l6.5-31.7h49.2L813.2,371.7z" class="st1"/><path d="M970.7,250.9c0,40.3-12.4,86-36.6,110.2c-11.8,11.8-25.5,18-42.7,18c-41.4,0-47.6-40.1-47.6-60 c0-37.9,12.4-83.6,37.6-108.1c11-10.8,24.7-17.5,42.2-17.5C965.1,193.7,970.7,230,970.7,250.9z M908.6,233.2 c-15.3,15.3-23.9,64.3-23.9,91.1c0,7.8,1.3,20.2,12.6,20.2c3,0,6.2-1.6,8.9-4.3c16.4-16.4,23.7-74.2,23.7-93.6 c0-7-1.6-18.3-11.3-18.3C915.1,228.4,911.8,230,908.6,233.2z" class="st1"/><path d="M994.1,377l-5.4-181.2h44.4l-4.3,83.4c-0.5,16.1-2.4,40.3-3.2,54.6h0.5c3.5-14.2,10.2-38.4,15.6-54.6 l27.7-83.4h44.1L1037.7,377H994.1z" class="st1"/></g><g><path d="M473.6,126.3h5.9v22.1h0.2c1.2-1.8,2.5-3.4,3.6-4.9l14-17.2h7.3L488,145.7l17.9,26.4h-7l-15.1-22.5l-4.4,5 v17.5h-5.9V126.3z" class="st1"/><path d="M510.4,126.8c2.9-0.5,6.6-0.9,11.4-0.9c5.8,0,10.1,1.4,12.8,3.8c2.5,2.2,4,5.5,4,9.6c0,4.1-1.2,7.4-3.5,9.8 c-3.1,3.3-8.2,5-14,5c-1.8,0-3.4-0.1-4.8-0.4v18.4h-5.9V126.8z M516.3,148.9c1.3,0.3,2.9,0.5,4.9,0.5c7.1,0,11.5-3.5,11.5-9.8 c0-6.1-4.3-9-10.8-9c-2.6,0-4.6,0.2-5.6,0.5V148.9z" class="st1"/><path d="M600.2,148.7c0,15.8-9.6,24.1-21.3,24.1c-12.1,0-20.6-9.4-20.6-23.3c0-14.5,9-24.1,21.3-24.1 C592.1,125.5,600.2,135.1,600.2,148.7z M564.6,149.5c0,9.8,5.3,18.6,14.6,18.6c9.4,0,14.7-8.6,14.7-19c0-9.1-4.8-18.6-14.6-18.6 C569.5,130.4,564.6,139.4,564.6,149.5z" class="st1"/><path d="M607.9,126.8c2.9-0.5,6.6-0.9,11.4-0.9c5.8,0,10.1,1.4,12.8,3.8c2.5,2.2,4,5.5,4,9.6c0,4.1-1.2,7.4-3.5,9.8 c-3.1,3.3-8.2,5-14,5c-1.8,0-3.4-0.1-4.8-0.4v18.4h-5.9V126.8z M613.8,148.9c1.3,0.3,2.9,0.5,4.9,0.5c7.1,0,11.5-3.5,11.5-9.8 c0-6.1-4.3-9-10.8-9c-2.6,0-4.6,0.2-5.6,0.5V148.9z" class="st1"/><path d="M667.8,150.6h-17.8v16.5h19.9v5H644v-45.8h24.7v5h-18.8v14.5h17.8V150.6z" class="st1"/><path d="M677.5,172.1v-45.8h6.5l14.7,23.2c3.4,5.4,6.1,10.2,8.2,14.9l0.1-0.1c-0.5-6.1-0.7-11.7-0.7-18.8v-19.2h5.6 v45.8h-6l-14.5-23.3c-3.2-5.1-6.3-10.3-8.6-15.3l-0.2,0.1c0.3,5.8,0.5,11.3,0.5,18.9v19.6H677.5z" class="st1"/><path d="M736.6,126.9c3.6-0.5,7.9-1,12.6-1c8.5,0,14.5,2,18.6,5.7c4.1,3.7,6.5,9,6.5,16.4c0,7.5-2.3,13.6-6.6,17.8 c-4.3,4.3-11.4,6.6-20.3,6.6c-4.2,0-7.8-0.2-10.7-0.5V126.9z M742.5,167.4c1.5,0.3,3.7,0.3,6,0.3c12.6,0,19.5-7.1,19.5-19.4 c0.1-10.8-6.1-17.7-18.6-17.7c-3.1,0-5.4,0.3-6.9,0.6V167.4z" class="st1"/><path d="M788.4,157.7l-4.8,14.4h-6.1l15.6-45.8h7.1l15.6,45.8h-6.3l-4.9-14.4H788.4z M803.4,153.1l-4.5-13.2 c-1-3-1.7-5.7-2.4-8.4h-0.1c-0.7,2.7-1.4,5.5-2.3,8.3l-4.5,13.3H803.4z" class="st1"/><path d="M826,131.3h-13.9v-5H846v5h-14v40.8h-6V131.3z" class="st1"/><path d="M853.4,157.7l-4.8,14.4h-6.1l15.6-45.8h7.1l15.6,45.8h-6.3l-4.9-14.4H853.4z M868.5,153.1l-4.5-13.2 c-1-3-1.7-5.7-2.4-8.4h-0.1c-0.7,2.7-1.4,5.5-2.3,8.3l-4.5,13.3H868.5z" class="st1"/><path d="M902.1,126.8c2.9-0.5,6.6-0.9,11.4-0.9c5.8,0,10.1,1.4,12.8,3.8c2.5,2.2,4,5.5,4,9.6c0,4.1-1.2,7.4-3.5,9.8 c-3.1,3.3-8.2,5-14,5c-1.8,0-3.4-0.1-4.8-0.4v18.4h-5.9V126.8z M908,148.9c1.3,0.3,2.9,0.5,4.9,0.5c7.1,0,11.5-3.5,11.5-9.8 c0-6.1-4.3-9-10.8-9c-2.6,0-4.6,0.2-5.6,0.5V148.9z" class="st1"/><path d="M977.4,148.7c0,15.8-9.6,24.1-21.3,24.1c-12.1,0-20.6-9.4-20.6-23.3c0-14.5,9-24.1,21.3-24.1 C969.3,125.5,977.4,135.1,977.4,148.7z M941.8,149.5c0,9.8,5.3,18.6,14.6,18.6c9.4,0,14.7-8.6,14.7-19c0-9.1-4.8-18.6-14.6-18.6 C946.7,130.4,941.8,139.4,941.8,149.5z" class="st1"/><path d="M985.1,126.9c3-0.6,7.3-1,11.4-1c6.3,0,10.4,1.2,13.3,3.7c2.3,2,3.6,5.2,3.6,8.7c0,6.1-3.8,10.1-8.6,11.7v0.2 c3.5,1.2,5.6,4.5,6.7,9.2c1.5,6.4,2.6,10.8,3.5,12.6h-6.1c-0.7-1.3-1.8-5.2-3.1-10.9c-1.4-6.3-3.8-8.7-9.2-8.9H991v19.9h-5.9 V126.9z M991,147.8h6.1c6.3,0,10.3-3.5,10.3-8.7c0-5.9-4.3-8.5-10.5-8.6c-2.9,0-4.9,0.3-5.8,0.5V147.8z" class="st1"/><path d="M1031,131.3H1017v-5h33.9v5h-14v40.8h-6V131.3z" class="st1"/><path d="M1058.4,157.7l-4.8,14.4h-6.1l15.6-45.8h7.1l15.6,45.8h-6.3l-4.9-14.4H1058.4z M1073.4,153.1l-4.5-13.2 c-1-3-1.7-5.7-2.4-8.4h-0.1c-0.7,2.7-1.4,5.5-2.3,8.3l-4.5,13.3H1073.4z" class="st1"/><path d="M1092.6,126.3h5.9v40.9h19.6v5h-25.5V126.3z" class="st1"/></g><g><g><path d="M292.2,519.7c-4.7,0-8.7-3.5-9.3-8.3c-0.5-5.1,3.2-9.7,8.3-10.3c6-0.6,12-1.5,17.9-2.7 c23.5-4.5,46-12.6,66.9-24.2c4.5-2.5,10.2-0.9,12.7,3.6c2.5,4.5,0.9,10.2-3.6,12.7c-22.6,12.6-47,21.4-72.4,26.3 c-6.4,1.2-12.9,2.2-19.4,2.9C292.9,519.7,292.6,519.7,292.2,519.7z M227.2,517.5c-0.5,0-1.1,0-1.6-0.1 c-12.7-2.3-25.3-5.6-37.5-9.8c-4.9-1.7-7.4-7-5.7-11.9c1.7-4.9,7-7.4,11.9-5.7c11.3,3.9,22.9,7,34.6,9.1 c5.1,0.9,8.5,5.7,7.6,10.8C235.6,514.3,231.7,517.5,227.2,517.5z M157.1,493c-1.5,0-3-0.4-4.4-1.1 c-28.7-15.5-53.7-36.1-74.2-61.3c-3.3-4-2.6-9.9,1.4-13.1c4-3.2,9.9-2.6,13.1,1.4c19,23.3,42,42.4,68.6,56.7 c4.5,2.4,6.2,8.1,3.8,12.6C163.6,491.2,160.4,493,157.1,493z M52.1,378.3c-3.6,0-7.1-2.1-8.6-5.7c-5-11.9-9.1-24.2-12.2-36.8 c-1.2-5,1.8-10,6.8-11.3s10,1.8,11.3,6.8c2.8,11.6,6.6,23,11.2,33.9c2,4.7-0.2,10.2-4.9,12.2C54.6,378,53.3,378.3,52.1,378.3z M34.5,306.1c-4.8,0-8.9-3.7-9.3-8.6c-0.5-6.2-0.7-12.5-0.7-18.7c0-26.1,4.3-52,12.6-76.9c1.6-4.9,6.9-7.5,11.8-5.9 c4.9,1.6,7.5,6.9,5.9,11.8c-7.7,23-11.7,46.8-11.7,70.9c0,5.7,0.2,11.6,0.7,17.3c0.4,5.1-3.4,9.6-8.6,10 C35,306.1,34.7,306.1,34.5,306.1z M75,156c-1.8,0-3.6-0.5-5.3-1.6c-4.3-2.9-5.3-8.7-2.4-13c7.3-10.6,15.5-20.8,24.3-30.1 c3.5-3.7,9.4-3.9,13.2-0.4c3.7,3.5,3.9,9.4,0.4,13.2c-8.2,8.7-15.8,18-22.5,27.9C80.9,154.6,78,156,75,156z M426,116.6 c-2.3,0-4.5-0.8-6.3-2.5c-22-20.5-47.6-36.1-75.9-46.4c-4.8-1.8-7.3-7.1-5.6-12c1.8-4.8,7.1-7.3,12-5.6 c30.7,11.2,58.3,28.1,82.2,50.2c3.8,3.5,4,9.4,0.5,13.2C431,115.6,428.5,116.6,426,116.6z M126.1,102.1c-2.8,0-5.6-1.3-7.4-3.7 c-3.1-4.1-2.4-9.9,1.7-13.1c25.9-19.9,55.1-34.1,86.6-42.2c5-1.3,10.1,1.7,11.3,6.7c1.3,5-1.7,10.1-6.7,11.3 c-29.1,7.4-56,20.5-79.9,38.9C130.1,101.4,128.1,102.1,126.1,102.1z M311.1,58.4c-0.6,0-1.2-0.1-1.8-0.2 c-11.7-2.2-23.6-3.6-35.6-3.9c-5.1-0.2-9.2-4.5-9-9.6c0.1-5.1,4.3-9.3,9.6-9c12.9,0.4,25.8,1.8,38.5,4.2c5.1,1,8.4,5.9,7.4,10.9 C319.4,55.3,315.5,58.4,311.1,58.4z" class="st1"/></g><g><path d="M270.6,491.4h-0.8c-10.9,0-21.9-0.9-32.6-2.6c-4.4-0.7-7.4-4.8-6.7-9.2c0.7-4.4,4.8-7.4,9.2-6.7 c10,1.6,20.1,2.4,30.1,2.4h0.8c4.5,0,8.1,3.6,8.1,8.1S275,491.4,270.6,491.4z M326.2,483.3c-3.5,0-6.7-2.3-7.7-5.8 c-1.3-4.3,1.2-8.8,5.4-10c5-1.5,9.9-3.2,14.8-5c19.3-7.4,37.2-17.9,53.2-31c3.4-2.8,8.5-2.3,11.4,1.1c2.8,3.4,2.3,8.5-1.1,11.4 c-17.3,14.2-36.7,25.5-57.6,33.6c-5.2,2-10.6,3.8-16,5.4C327.8,483.2,327,483.3,326.2,483.3z M207.1,481.5 c-0.8,0-1.7-0.1-2.5-0.4c-26.9-8.7-51.3-22.4-72.7-40.7c-3.4-2.9-3.8-8-0.9-11.4c2.9-3.4,8-3.8,11.4-0.9 c19.7,16.9,42.3,29.6,67.2,37.6c4.2,1.4,6.6,5.9,5.2,10.2C213.7,479.3,210.5,481.5,207.1,481.5z M100,400.1 c-2.6,0-5.2-1.3-6.8-3.6c-6.1-9.3-11.5-19.2-16.1-29.4c-1.8-4.1,0-8.8,4.1-10.7c4.1-1.8,8.8,0,10.7,4.1 c4.2,9.4,9.2,18.5,14.8,27.1c2.4,3.7,1.4,8.7-2.3,11.2C103,399.6,101.5,400.1,100,400.1z M73.8,341.4c-3.6,0-6.8-2.4-7.8-6 c-4.6-17.2-6.9-35.1-6.9-52.9c0-10.1,0.7-20.3,2.2-30.3c0.6-4.4,4.8-7.5,9.1-6.8c4.4,0.6,7.5,4.7,6.8,9.1c-1.3,9.3-2,18.7-2,27.9 c0,16.5,2.1,32.9,6.3,48.8c1.1,4.3-1.4,8.7-5.7,9.9C75.2,341.3,74.5,341.4,73.8,341.4z M85.1,207.4c-1.1,0-2.2-0.2-3.3-0.7 c-4.1-1.8-5.9-6.6-4.1-10.7c4.6-10.2,9.9-20.1,16-29.4c2.4-3.7,7.4-4.8,11.2-2.3c3.7,2.4,4.8,7.4,2.3,11.2 c-5.6,8.6-10.6,17.8-14.8,27.2C91.1,205.6,88.2,207.4,85.1,207.4z M120.2,153.6c-1.9,0-3.9-0.7-5.4-2.1c-3.3-3-3.5-8.1-0.6-11.4 c19-20.9,41.6-37.5,67.2-49.3c4.1-1.9,8.8-0.1,10.7,4c1.9,4,0.1,8.8-4,10.7c-23.6,10.8-44.5,26.1-62,45.5 C124.6,152.7,122.4,153.6,120.2,153.6z M377.7,119.6c-1.5,0-3-0.4-4.3-1.3c-21.9-14-46.1-23.3-71.8-27.7 c-4.4-0.7-7.3-4.9-6.6-9.3c0.7-4.4,4.9-7.3,9.3-6.6c27.8,4.7,54,14.9,77.7,30c3.8,2.4,4.9,7.4,2.5,11.1 C383,118.3,380.4,119.6,377.7,119.6z M238.7,90.1c-3.9,0-7.4-2.9-8-6.9c-0.7-4.4,2.4-8.5,6.8-9.2c10.4-1.6,20.9-2.4,31.4-2.4l2,0 c4.5,0.1,8,3.7,8,8.2c-0.1,4.4-3.7,8-8.1,8c0,0-0.1,0-0.1,0l-1.8,0c-9.7,0-19.5,0.7-29.1,2.2C239.5,90.1,239.1,90.1,238.7,90.1z" class="st1"/></g><g><path d="M262.7,457.8c-0.1,0-0.1,0-0.2,0c-9-0.3-18.1-1.3-27-3c-3.5-0.7-5.9-4.1-5.2-7.7s4.1-5.9,7.7-5.2 c8.2,1.6,16.6,2.5,24.9,2.8c3.6,0.1,6.4,3.1,6.3,6.7C269.1,455,266.2,457.8,262.7,457.8z M308,452.8c-2.9,0-5.6-2-6.3-4.9 c-0.9-3.5,1.2-7,4.7-7.9c4.1-1,8.2-2.3,12.1-3.6c15.8-5.5,30.6-13.4,43.9-23.5c2.9-2.2,7-1.6,9.2,1.2c2.2,2.9,1.6,7-1.2,9.2 c-14.4,11-30.4,19.6-47.6,25.5c-4.3,1.5-8.7,2.8-13.1,3.9C309.1,452.8,308.5,452.8,308,452.8z M211.7,447.9 c-0.7,0-1.5-0.1-2.2-0.4c-21.5-7.8-40.9-19.6-57.6-35.1c-2.7-2.4-2.8-6.6-0.4-9.2c2.4-2.7,6.6-2.8,9.2-0.4 c15.5,14.2,33.4,25.2,53.2,32.4c3.4,1.2,5.1,5,3.9,8.4C216.8,446.2,214.3,447.9,211.7,447.9z M127.4,378.9 c-2.2,0-4.4-1.1-5.6-3.2c-4.7-7.7-8.8-15.9-12.1-24.3c-1.3-3.3,0.3-7.1,3.6-8.5c3.3-1.4,7.2,0.3,8.5,3.6 c3.1,7.7,6.9,15.3,11.2,22.4c1.9,3.1,0.9,7.1-2.2,9C129.7,378.6,128.6,378.9,127.4,378.9z M108,330.7c-3,0-5.7-2.1-6.4-5.1 c-2.7-12.1-4.1-24.5-4.1-36.9c0-10.2,0.9-20.5,2.8-30.5c0.6-3.5,4.1-5.9,7.6-5.2c3.5,0.6,5.9,4.1,5.2,7.6 c-1.7,9.3-2.6,18.8-2.6,28.2c0,11.4,1.3,22.9,3.8,34.1c0.8,3.5-1.4,7-4.9,7.8C108.9,330.6,108.4,330.7,108,330.7z M121,222.6 c-1,0-1.9-0.2-2.9-0.7c-3.2-1.6-4.6-5.5-3-8.7c4-8.1,8.6-16,13.8-23.3c2.1-3,6.2-3.6,9.1-1.6c2.9,2.1,3.7,6.2,1.6,9.1 c-4.8,6.8-9.1,14.1-12.8,21.6C125.7,221.2,123.4,222.6,121,222.6z M150.9,180c-1.6,0-3.3-0.6-4.6-1.9c-2.6-2.5-2.6-6.7-0.1-9.2 c16-16.4,34.8-29.1,55.8-37.9c3.3-1.4,7.2,0.2,8.5,3.5c1.4,3.3-0.2,7.2-3.5,8.5c-19.4,8.1-36.7,19.8-51.5,35 C154.3,179.4,152.6,180,150.9,180z M360.3,160.1c-1.3,0-2.6-0.4-3.7-1.2c-17.3-12-36.6-20.2-57.2-24.5c-3.5-0.7-5.8-4.2-5.1-7.7 c0.7-3.5,4.2-5.8,7.7-5.1c22.4,4.7,43.2,13.6,62,26.6c3,2,3.7,6.1,1.7,9.1C364.4,159.1,362.3,160.1,360.3,160.1z M248.7,132.2 c-3.3,0-6.1-2.5-6.5-5.8c-0.4-3.6,2.2-6.8,5.7-7.2c9-1,18.1-1.3,27.1-0.9c3.6,0.2,6.4,3.2,6.2,6.8c-0.2,3.6-3.2,6.3-6.8,6.2 c-8.3-0.4-16.7-0.1-25,0.9C249.2,132.1,248.9,132.2,248.7,132.2z" class="st1"/></g></g><g><path d="M464.1,411.1h4.4v28.7h-4.4V411.1z" class="st1"/><path d="M495.1,411.1h4.1l13,20.4h0.1v-20.4h4.4v28.7h-4.1l-13-20.4h-0.1v20.4h-4.4V411.1z" class="st1"/><path d="M573.5,411.1h10c3.9,0,6.8,1.6,8.8,4.8c0.7,1.1,1.1,2.2,1.3,3.4c0.1,1.2,0.2,3.2,0.2,6.1 c0,3.1-0.1,5.2-0.3,6.5c-0.1,0.6-0.3,1.2-0.5,1.7c-0.2,0.5-0.5,1-0.8,1.5c-0.8,1.4-2,2.5-3.5,3.3c-1.5,0.9-3.3,1.4-5.5,1.4h-9.8 V411.1z M577.9,435.7h5.2c2.4,0,4.2-0.8,5.3-2.5c0.5-0.6,0.8-1.4,0.9-2.3c0.1-0.9,0.2-2.7,0.2-5.2c0-2.5-0.1-4.3-0.2-5.4 c-0.2-1.1-0.5-1.9-1.1-2.6c-1.2-1.7-2.9-2.5-5.1-2.4h-5.2V435.7z" class="st1"/><path d="M633.5,433.4h-10.9l-2.2,6.4h-4.6l10.4-28.7h3.6l10.4,28.7h-4.6L633.5,433.4z M632.3,429.6l-4.2-12.5H628 l-4.2,12.5H632.3z" class="st1"/><path d="M665.9,415H658v-3.9h20.1v3.9h-7.9v24.8h-4.4V415z" class="st1"/><path d="M713.5,433.4h-10.9l-2.2,6.4h-4.6l10.4-28.7h3.6l10.4,28.7h-4.6L713.5,433.4z M712.2,429.6l-4.2-12.5H708 l-4.2,12.5H712.2z" class="st1"/><path d="M771.6,411.1h4.6l4.5,20.4h0.1l5.6-20.4h3.2l5.6,20.4h0.1l4.5-20.4h4.6l-7.2,28.7h-3.6l-5.5-20.7h-0.1 l-5.5,20.7h-3.6L771.6,411.1z" class="st1"/><path d="M828.4,411.1h18.3v4.1h-14v8.2h11.9v3.9h-11.9v8.4h14v4.1h-18.3V411.1z" class="st1"/><path d="M906.5,415h-7.9v-3.9h20.1v3.9h-7.9v24.8h-4.4V415z" class="st1"/><path d="M942.4,411.1h11.2c2.4,0,4.3,0.6,5.9,1.9c1.8,1.4,2.8,3.5,2.9,6.1c-0.1,3.9-1.9,6.6-5.6,8l6.7,12.7h-5.2 l-5.9-12.3h-5.6v12.3h-4.4V411.1z M946.8,423.7h6.6c1.6,0,2.8-0.5,3.7-1.4c0.8-0.9,1.2-1.9,1.2-3.2c0-1.5-0.5-2.6-1.4-3.3 c-0.7-0.6-1.8-0.9-3.2-0.9h-6.8V423.7z" class="st1"/><path d="M987.1,411.1h4.4v18.5c0,2,0.6,3.4,1.7,4.5c1.1,1.1,2.5,1.6,4.2,1.6c1.7,0,3.1-0.5,4.2-1.6 c1.1-1,1.6-2.5,1.7-4.5v-18.5h4.3v19c0,3-1,5.4-2.9,7.2c-1.9,1.8-4.3,2.8-7.3,2.8c-2.9,0-5.3-1-7.2-2.8c-2-1.8-3-4.2-3-7.2V411.1z" class="st1"/><path d="M1042.1,435.7c3.7-0.1,5.6-1.4,5.7-4c0-2.1-1.2-3.4-3.7-3.9c-1.2-0.2-2.4-0.3-3.8-0.5 c-2.5-0.4-4.4-1.3-5.6-2.7c-1.3-1.5-2-3.2-2-5.3c0-2.5,0.8-4.5,2.5-6.1c1.6-1.5,3.9-2.3,6.9-2.3c3.6,0.1,6.7,1.1,9.3,3l-2.4,3.6 c-2.2-1.4-4.5-2.2-7.1-2.2c-1.3,0-2.5,0.3-3.4,1c-0.9,0.7-1.4,1.7-1.4,3.1c0,0.8,0.3,1.6,1,2.2c0.6,0.7,1.7,1.2,3.1,1.4 c0.8,0.1,1.9,0.3,3.2,0.5c2.7,0.4,4.7,1.3,6,2.9c1.3,1.5,1.9,3.3,1.9,5.4c-0.1,5.5-3.5,8.3-10.1,8.4c-4.3,0-7.9-1.3-11-3.9 l2.9-3.3C1036.2,434.7,1039,435.7,1042.1,435.7z" class="st1"/><path d="M1082.2,415h-7.9v-3.9h20.1v3.9h-7.9v24.8h-4.4V415z" class="st1"/></g><circle cx="263.8" cy="42.2" r="13.9" class="st1"/><g><circle cx="117.6" cy="95.4" r="13.9" class="st1"/></g><g><circle cx="70.5" cy="153.3" r="13.9" class="st1"/></g><circle cx="35.2" cy="302.4" r="13.9" class="st1"/><circle cx="295" cy="126" r="8.2" class="st1"/><circle cx="243.1" cy="126.4" r="8.2" class="st1"/><g><circle cx="147.2" cy="176.3" r="8.2" class="st1"/></g><g><circle cx="119.5" cy="219.1" r="8.2" class="st1"/></g><circle cx="108.6" cy="327.6" r="8.2" class="st1"/><circle cx="128.6" cy="374.6" r="8.2" class="st1"/><circle cx="213.4" cy="442" r="8.2" class="st1"/><circle cx="264.5" cy="451.4" r="8.2" class="st1"/><circle cx="368.2" cy="416.4" r="8.2" class="st1"/><circle cx="159.6" cy="486" r="13.9" class="st1"/><circle cx="389.9" cy="480.2" r="13.9" class="st1"/><circle cx="302.6" cy="82.6" r="10.6" class="st1"/><circle cx="230.9" cy="82.6" r="10.6" class="st1"/><g><circle cx="115.5" cy="149.6" r="10.6" class="st1"/></g><g><circle cx="83" cy="204.2" r="10.6" class="st1"/></g><circle cx="74.4" cy="335.9" r="10.6" class="st1"/><circle cx="101.9" cy="394.8" r="10.6" class="st1"/><circle cx="53.4" cy="374" r="10.6" class="st1"/><circle cx="233" cy="510.2" r="10.6" class="st1"/><circle cx="210.4" cy="475" r="10.6" class="st1"/><circle cx="277.4" cy="482.7" r="10.6" class="st1"/><circle cx="402.1" cy="433.5" r="10.6" class="st1"/><circle cx="336.4" cy="53.4" r="13.9" class="st1"/></g></svg>