<?xml version="1.0" encoding="utf-8"?>
<!-- Generator: Adobe Illustrator 22.0.0, SVG Export Plug-In . SVG Version: 6.00 Build 0)  -->
<svg version="1.1" id="Layer_1" xmlns="http://www.w3.org/2000/svg" xmlns:xlink="http://www.w3.org/1999/xlink" x="0px" y="0px"
	 viewBox="0 0 1133.9 566.9" style="enable-background:new 0 0 1133.9 566.9;" xml:space="preserve">
<style type="text/css">
	.st0{fill:#FFFFFF;}
	.st1{fill:#020202;}
	.st2{fill:#231F20;}
</style>
<g>
	<g>
		<path class="st0" d="M256.9,265c0,31.7-9.7,67.6-28.8,86.7c-9.3,9.3-20.1,14.2-33.6,14.2c-32.6,0-37.4-31.5-37.4-47.1
			c0-29.8,9.7-65.7,29.6-85c8.7-8.5,19.4-13.7,33.2-13.7C252.5,220,256.9,248.5,256.9,265z M208.1,251c-12.1,12-18.8,50.5-18.8,71.7
			c0,6.1,1.1,15.9,9.9,15.9c2.3,0,4.9-1.3,7-3.4c12.9-12.9,18.6-58.3,18.6-73.6c0-5.5-1.3-14.4-8.9-14.4
			C213.2,247.2,210.6,248.5,208.1,251z"/>
		<path class="st0" d="M285.5,223.8c9.5-1.7,21.8-2.7,31.3-2.7c9.7,0,25.4,1.7,35.1,12.1c6.3,6.8,9.1,17.8,9.1,25.2
			c0,21.6-10.6,37-20.1,44.6c-10.1,8-24.7,11.8-36.8,11.8c-1.7,0-3.6,0-5.5,0l-9.5,49.5h-30.4L285.5,223.8z M303.7,289.1
			c1.3,0,2.5,0,3.6,0c18.2,0,22.4-18,22.4-28.7c0-8.2-4-14-12.3-14c-2.3,0-4.4,0-5.7,0.4L303.7,289.1z"/>
		<path class="st0" d="M432,303.2h-29.8l-6.8,33.2h34.2l-5.5,27.7H359l27.3-142.5h62.8l-5.5,27.5h-30.9l-5.9,27.9H437L432,303.2z"/>
		<path class="st0" d="M444.6,364.1l27.3-142.5h28.3l9.3,47.8c4,20.7,6.3,34.5,7.2,45.7h0.4c1.7-15.9,4.4-43.5,9.5-70.4l4.4-23h26.6
			l-27.3,142.5H504l-9.9-44c-5.1-22.2-5.9-30.7-7.4-48.6h-0.4c-1.7,14.2-5.1,40.2-10.4,68.1l-4.7,24.5H444.6z"/>
		<path class="st0" d="M638.3,359.9c-8.5,3-18.2,5.5-30.2,5.5c-18,0-28.5-5.5-36.1-14.8c-7.4-8.7-11.2-22.6-11.2-35.3
			c0-30.7,10.4-56.9,26.6-74.4c11.8-12.9,29.4-20.5,48.4-20.5c13.1,0,20.5,2.3,24.7,4l-9.7,27.7c-3.4-1.7-10.1-3.2-16.1-3.2
			c-9.5,0-16.3,2.7-21.6,8c-10.8,10.8-19.4,31.1-19.4,58.3c0,15.4,5.3,23.3,13.7,23.3c2.5,0,4.2,0,6.6-0.4l5.5-30.2h-10.4l5.1-24.9
			h38.7L638.3,359.9z"/>
		<path class="st0" d="M762.1,265c0,31.7-9.7,67.6-28.8,86.7c-9.3,9.3-20.1,14.2-33.6,14.2c-32.6,0-37.4-31.5-37.4-47.1
			c0-29.8,9.7-65.7,29.6-85c8.7-8.5,19.4-13.7,33.2-13.7C757.7,220,762.1,248.5,762.1,265z M713.3,251c-12.1,12-18.8,50.5-18.8,71.7
			c0,6.1,1.1,15.9,9.9,15.9c2.3,0,4.9-1.3,7-3.4c12.9-12.9,18.6-58.3,18.6-73.6c0-5.5-1.3-14.4-8.9-14.4
			C718.4,247.2,715.9,248.5,713.3,251z"/>
		<path class="st0" d="M780.5,364.1l-4.2-142.5h34.9l-3.4,65.5c-0.4,12.7-1.9,31.7-2.5,42.9h0.4c2.7-11.2,8-30.2,12.3-42.9
			l21.8-65.5h34.7l-59.6,142.5H780.5z"/>
	</g>
	<g>
		<path class="st1" d="M371.3,167h4.7v17.4h0.2c1-1.4,1.9-2.7,2.8-3.8l11-13.5h5.8l-13,15.3l14.1,20.7h-5.5l-11.9-17.7l-3.4,4V203
			h-4.7V167z"/>
		<path class="st1" d="M400.3,167.4c2.2-0.4,5.2-0.7,8.9-0.7c4.6,0,8,1.1,10.1,3c2,1.7,3.2,4.3,3.2,7.5c0,3.3-1,5.8-2.8,7.7
			c-2.5,2.6-6.5,4-11,4c-1.4,0-2.7-0.1-3.7-0.3V203h-4.7V167.4z M404.9,184.8c1,0.3,2.3,0.4,3.8,0.4c5.6,0,9-2.7,9-7.7
			c0-4.8-3.4-7.1-8.5-7.1c-2,0-3.6,0.2-4.4,0.4V184.8z"/>
		<path class="st1" d="M470.8,184.6c0,12.4-7.5,19-16.7,19c-9.5,0-16.2-7.4-16.2-18.3c0-11.4,7.1-18.9,16.7-18.9
			C464.5,166.4,470.8,173.9,470.8,184.6z M442.9,185.2c0,7.7,4.2,14.6,11.5,14.6c7.4,0,11.5-6.8,11.5-15c0-7.2-3.7-14.6-11.5-14.6
			C446.7,170.2,442.9,177.3,442.9,185.2z"/>
		<path class="st1" d="M476.9,167.4c2.2-0.4,5.2-0.7,8.9-0.7c4.6,0,8,1.1,10.1,3c2,1.7,3.2,4.3,3.2,7.5c0,3.3-1,5.8-2.8,7.7
			c-2.5,2.6-6.5,4-11,4c-1.4,0-2.7-0.1-3.7-0.3V203h-4.7V167.4z M481.5,184.8c1,0.3,2.3,0.4,3.8,0.4c5.6,0,9-2.7,9-7.7
			c0-4.8-3.4-7.1-8.5-7.1c-2,0-3.6,0.2-4.4,0.4V184.8z"/>
		<path class="st1" d="M524,186.1h-14v13h15.6v3.9h-20.3v-36h19.5v3.9H510v11.4h14V186.1z"/>
		<path class="st1" d="M531.6,203v-36h5.1l11.5,18.2c2.7,4.2,4.8,8,6.5,11.7l0.1-0.1c-0.4-4.8-0.5-9.2-0.5-14.8V167h4.4v36h-4.7
			l-11.4-18.3c-2.5-4-4.9-8.1-6.7-12l-0.2,0.1c0.3,4.5,0.4,8.9,0.4,14.9V203H531.6z"/>
		<path class="st1" d="M578.1,167.5c2.8-0.4,6.2-0.7,9.9-0.7c6.7,0,11.4,1.5,14.6,4.5c3.2,2.9,5.1,7.1,5.1,12.9
			c0,5.9-1.8,10.7-5.2,14c-3.4,3.4-8.9,5.2-15.9,5.2c-3.3,0-6.1-0.2-8.4-0.4V167.5z M582.8,199.3c1.2,0.2,2.9,0.3,4.7,0.3
			c9.9,0,15.3-5.6,15.3-15.3c0.1-8.5-4.8-13.9-14.6-13.9c-2.4,0-4.2,0.2-5.5,0.5V199.3z"/>
		<path class="st1" d="M618.8,191.7L615,203h-4.8l12.2-36h5.6l12.3,36h-5l-3.8-11.3H618.8z M630.6,188l-3.5-10.4
			c-0.8-2.4-1.3-4.5-1.9-6.6h-0.1c-0.5,2.1-1.1,4.3-1.8,6.5l-3.5,10.4H630.6z"/>
		<path class="st1" d="M648.4,170.9h-11v-4h26.7v4h-11V203h-4.7V170.9z"/>
		<path class="st1" d="M669.9,191.7l-3.7,11.3h-4.8l12.2-36h5.6l12.3,36h-5l-3.8-11.3H669.9z M681.8,188l-3.5-10.4
			c-0.8-2.4-1.3-4.5-1.9-6.6h-0.1c-0.5,2.1-1.1,4.3-1.8,6.5l-3.5,10.4H681.8z"/>
		<path class="st1" d="M708.2,167.4c2.2-0.4,5.2-0.7,8.9-0.7c4.6,0,8,1.1,10.1,3c2,1.7,3.2,4.3,3.2,7.5c0,3.3-1,5.8-2.8,7.7
			c-2.5,2.6-6.5,4-11,4c-1.4,0-2.7-0.1-3.7-0.3V203h-4.7V167.4z M712.8,184.8c1,0.3,2.3,0.4,3.8,0.4c5.6,0,9-2.7,9-7.7
			c0-4.8-3.4-7.1-8.5-7.1c-2,0-3.6,0.2-4.4,0.4V184.8z"/>
		<path class="st1" d="M767.4,184.6c0,12.4-7.5,19-16.7,19c-9.5,0-16.2-7.4-16.2-18.3c0-11.4,7.1-18.9,16.7-18.9
			C761,166.4,767.4,173.9,767.4,184.6z M739.4,185.2c0,7.7,4.2,14.6,11.5,14.6c7.4,0,11.5-6.8,11.5-15c0-7.2-3.7-14.6-11.5-14.6
			C743.3,170.2,739.4,177.3,739.4,185.2z"/>
		<path class="st1" d="M773.4,167.5c2.4-0.5,5.7-0.7,8.9-0.7c5,0,8.2,0.9,10.4,2.9c1.8,1.6,2.8,4.1,2.8,6.8c0,4.8-3,7.9-6.8,9.2v0.2
			c2.8,1,4.4,3.5,5.3,7.3c1.2,5,2,8.5,2.8,9.9h-4.8c-0.6-1-1.4-4.1-2.4-8.6c-1.1-5-3-6.8-7.2-7h-4.4V203h-4.7V167.5z M778.1,183.9
			h4.8c5,0,8.1-2.7,8.1-6.8c0-4.7-3.4-6.7-8.3-6.7c-2.2,0-3.8,0.2-4.6,0.4V183.9z"/>
		<path class="st1" d="M809.5,170.9h-11v-4h26.7v4h-11V203h-4.7V170.9z"/>
		<path class="st1" d="M831.1,191.7l-3.7,11.3h-4.8l12.2-36h5.6l12.3,36h-5l-3.8-11.3H831.1z M842.9,188l-3.5-10.4
			c-0.8-2.4-1.3-4.5-1.9-6.6h-0.1c-0.5,2.1-1.1,4.3-1.8,6.5L832,188H842.9z"/>
		<path class="st1" d="M858,167h4.7v32.1H878v3.9h-20V167z"/>
	</g>
	<g>
		<g>
			<path class="st0" d="M228.7,476.3c-3.7,0-6.9-2.8-7.3-6.6c-0.4-4,2.5-7.6,6.5-8.1c4.7-0.5,9.4-1.2,14.1-2.1
				c18.5-3.5,36.2-9.9,52.6-19.1c3.5-2,8-0.7,10,2.9s0.7,8-2.9,10c-17.8,9.9-37,16.8-57,20.6c-5,1-10.2,1.7-15.2,2.3
				C229.2,476.3,229,476.3,228.7,476.3z M177.6,474.5c-0.4,0-0.9,0-1.3-0.1c-10-1.8-19.9-4.4-29.5-7.7c-3.8-1.3-5.8-5.5-4.5-9.3
				c1.3-3.8,5.5-5.8,9.3-4.5c8.9,3.1,18,5.5,27.2,7.1c4,0.7,6.6,4.5,5.9,8.5C184.2,472,181.1,474.5,177.6,474.5z M122.5,455.3
				c-1.2,0-2.4-0.3-3.5-0.9c-22.6-12.2-42.2-28.4-58.4-48.2c-2.6-3.1-2.1-7.8,1.1-10.3c3.1-2.6,7.8-2.1,10.3,1.1
				c14.9,18.3,33,33.3,53.9,44.6c3.6,1.9,4.9,6.4,3,9.9C127.6,453.9,125.1,455.3,122.5,455.3z M39.9,365.1c-2.9,0-5.6-1.7-6.8-4.5
				c-4-9.3-7.2-19.1-9.6-28.9c-1-3.9,1.5-7.9,5.4-8.9s7.9,1.5,8.9,5.4c2.2,9.1,5.2,18.1,8.8,26.7c1.6,3.7-0.2,8-3.9,9.6
				C41.9,364.9,40.9,365.1,39.9,365.1z M26.1,308.4c-3.8,0-7-2.9-7.3-6.8c-0.4-4.9-0.6-9.8-0.6-14.7c0-20.5,3.3-40.9,9.9-60.4
				c1.3-3.8,5.5-5.9,9.3-4.6c3.8,1.3,5.9,5.5,4.6,9.3c-6.1,18.1-9.2,36.8-9.2,55.8c0,4.5,0.2,9.1,0.5,13.6c0.3,4-2.7,7.6-6.7,7.9
				C26.5,308.3,26.3,308.4,26.1,308.4z M57.9,190.3c-1.4,0-2.9-0.4-4.1-1.3c-3.3-2.3-4.2-6.9-1.9-10.2c5.7-8.4,12.2-16.3,19.1-23.7
				c2.8-2.9,7.4-3.1,10.4-0.3c2.9,2.8,3.1,7.4,0.3,10.4c-6.4,6.8-12.4,14.2-17.7,21.9C62.6,189.2,60.3,190.3,57.9,190.3z
				 M333.9,159.4c-1.8,0-3.6-0.6-5-2c-17.3-16.1-37.4-28.4-59.7-36.5c-3.8-1.4-5.8-5.6-4.4-9.4c1.4-3.8,5.6-5.8,9.4-4.4
				c24.1,8.8,45.9,22.1,64.6,39.5c3,2.8,3.1,7.4,0.4,10.4C337.8,158.6,335.9,159.4,333.9,159.4z M98.1,147.9c-2.2,0-4.4-1-5.8-2.9
				c-2.5-3.2-1.9-7.8,1.4-10.3c20.4-15.6,43.3-26.8,68.1-33.1c3.9-1,7.9,1.4,8.9,5.3c1,3.9-1.4,7.9-5.3,8.9
				c-22.9,5.9-44,16.1-62.8,30.6C101.2,147.4,99.6,147.9,98.1,147.9z M243.5,113.6c-0.5,0-0.9,0-1.4-0.1c-9.2-1.8-18.6-2.8-28-3.1
				c-4-0.1-7.2-3.5-7.1-7.5c0.1-4,3.4-7.3,7.5-7.1c10.1,0.3,20.3,1.4,30.3,3.3c4,0.8,6.6,4.6,5.8,8.6
				C250,111.2,247,113.6,243.5,113.6z"/>
		</g>
		<g>
			<path class="st0" d="M211.7,454.1h-0.6c-8.5,0-17.2-0.7-25.7-2c-3.5-0.5-5.8-3.8-5.3-7.3c0.5-3.5,3.8-5.8,7.3-5.3
				c7.8,1.2,15.8,1.9,23.7,1.9h0.6c3.5,0,6.3,2.8,6.3,6.3C218,451.2,215.2,454.1,211.7,454.1z M255.5,447.7c-2.7,0-5.3-1.8-6.1-4.5
				c-1-3.4,0.9-6.9,4.3-7.9c3.9-1.2,7.8-2.5,11.6-3.9c15.2-5.8,29.2-14,41.8-24.4c2.7-2.2,6.7-1.8,8.9,0.9c2.2,2.7,1.8,6.7-0.9,8.9
				c-13.6,11.2-28.9,20.1-45.3,26.4c-4.1,1.6-8.3,3-12.6,4.3C256.7,447.6,256,447.7,255.5,447.7z M161.8,446.2c-0.6,0-1.3-0.1-2-0.3
				c-21.1-6.9-40.3-17.6-57.1-32c-2.7-2.3-3-6.3-0.7-8.9c2.3-2.7,6.3-3,8.9-0.7c15.5,13.3,33.3,23.2,52.8,29.6
				c3.3,1.1,5.2,4.7,4.1,8C166.9,444.5,164.5,446.2,161.8,446.2z M77.6,382.2c-2.1,0-4.1-1-5.3-2.9c-4.8-7.3-9.1-15.1-12.6-23.1
				c-1.4-3.2,0-6.9,3.2-8.4c3.2-1.4,6.9,0,8.4,3.2c3.3,7.4,7.2,14.6,11.6,21.3c1.9,2.9,1.1,6.9-1.8,8.8
				C80,381.9,78.8,382.2,77.6,382.2z M57,336.1c-2.8,0-5.4-1.9-6.1-4.7c-3.6-13.6-5.4-27.6-5.4-41.6c0-7.9,0.6-15.9,1.7-23.8
				c0.5-3.5,3.8-5.9,7.2-5.4c3.5,0.5,5.9,3.7,5.4,7.2c-1.1,7.3-1.6,14.7-1.6,22c0,13,1.7,25.9,5,38.4c0.9,3.4-1.1,6.9-4.5,7.8
				C58.1,336,57.5,336.1,57,336.1z M65.8,230.7c-0.9,0-1.7-0.2-2.6-0.6c-3.2-1.4-4.6-5.2-3.2-8.4c3.6-8,7.8-15.8,12.6-23.1
				c1.9-2.9,5.8-3.8,8.8-1.8c2.9,1.9,3.8,5.8,1.8,8.8c-4.4,6.8-8.3,14-11.7,21.4C70.6,229.3,68.3,230.7,65.8,230.7z M93.5,188.4
				c-1.5,0-3-0.5-4.3-1.6c-2.6-2.4-2.8-6.4-0.4-9c14.9-16.5,32.7-29.5,52.8-38.7c3.2-1.5,6.9-0.1,8.4,3.1c1.5,3.2,0.1,6.9-3.1,8.4
				c-18.6,8.5-35,20.5-48.7,35.7C96.9,187.7,95.2,188.4,93.5,188.4z M295.9,161.7c-1.2,0-2.4-0.3-3.4-1
				c-17.2-11-36.2-18.4-56.4-21.8c-3.5-0.6-5.8-3.9-5.2-7.3c0.6-3.5,3.9-5.8,7.3-5.2c21.9,3.7,42.4,11.7,61.1,23.6
				c3,1.9,3.8,5.8,1.9,8.8C300.1,160.7,298,161.7,295.9,161.7z M186.6,138.5c-3.1,0-5.8-2.3-6.3-5.4c-0.5-3.5,1.9-6.7,5.3-7.2
				c8.2-1.2,16.5-1.9,24.7-1.9l1.6,0c3.5,0,6.3,2.9,6.3,6.4c0,3.5-2.9,6.3-6.3,6.3c0,0-0.1,0-0.1,0l-1.4,0c-7.7,0-15.3,0.6-22.9,1.7
				C187.3,138.5,187,138.5,186.6,138.5z"/>
		</g>
		<g>
			<path class="st0" d="M205.5,427.6c-0.1,0-0.1,0-0.2,0c-7.1-0.2-14.2-1-21.2-2.4c-2.8-0.5-4.6-3.2-4.1-6c0.5-2.8,3.2-4.6,6-4.1
				c6.5,1.3,13,2,19.6,2.2c2.8,0.1,5.1,2.5,5,5.3C210.6,425.4,208.3,427.6,205.5,427.6z M241.1,423.7c-2.3,0-4.4-1.5-5-3.9
				c-0.7-2.7,0.9-5.5,3.7-6.2c3.2-0.8,6.4-1.8,9.5-2.9c12.4-4.3,24.1-10.5,34.5-18.5c2.3-1.7,5.5-1.3,7.2,1c1.7,2.3,1.3,5.5-1,7.2
				c-11.3,8.6-23.9,15.4-37.4,20c-3.4,1.2-6.8,2.2-10.3,3.1C242,423.6,241.5,423.7,241.1,423.7z M165.4,419.8
				c-0.6,0-1.2-0.1-1.8-0.3c-16.9-6.2-32.1-15.4-45.3-27.6c-2.1-1.9-2.2-5.2-0.3-7.3c1.9-2.1,5.2-2.2,7.3-0.3
				c12.2,11.2,26.2,19.8,41.9,25.5c2.7,1,4,3.9,3.1,6.6C169.4,418.5,167.5,419.8,165.4,419.8z M99.1,365.6c-1.7,0-3.4-0.9-4.4-2.5
				c-3.7-6.1-6.9-12.5-9.5-19.1c-1.1-2.6,0.2-5.6,2.8-6.7c2.6-1.1,5.6,0.2,6.7,2.8c2.4,6.1,5.4,12,8.8,17.6c1.5,2.4,0.7,5.6-1.7,7
				C100.9,365.3,100,365.6,99.1,365.6z M83.8,327.6c-2.3,0-4.5-1.6-5-4c-2.2-9.5-3.2-19.3-3.2-29.1c0-8,0.7-16.1,2.2-24
				c0.5-2.8,3.2-4.6,6-4.1c2.8,0.5,4.6,3.2,4.1,6c-1.3,7.3-2,14.7-2,22.1c0,9,1,18,3,26.8c0.6,2.8-1.1,5.5-3.9,6.1
				C84.6,327.6,84.2,327.6,83.8,327.6z M94.1,242.7c-0.8,0-1.5-0.2-2.3-0.5c-2.5-1.2-3.6-4.3-2.3-6.9c3.1-6.4,6.8-12.5,10.9-18.3
				c1.6-2.3,4.8-2.9,7.2-1.2c2.3,1.6,2.9,4.8,1.2,7.2c-3.8,5.4-7.2,11.1-10.1,16.9C97.8,241.6,96,242.7,94.1,242.7z M117.6,209.2
				c-1.3,0-2.6-0.5-3.6-1.5c-2-2-2.1-5.2-0.1-7.3c12.6-12.9,27.3-22.9,43.9-29.8c2.6-1.1,5.6,0.2,6.7,2.8c1.1,2.6-0.1,5.6-2.8,6.7
				c-15.3,6.4-28.9,15.6-40.5,27.5C120.3,208.7,119,209.2,117.6,209.2z M282.2,193.5c-1,0-2-0.3-2.9-0.9
				c-13.6-9.4-28.8-15.9-45-19.3c-2.8-0.6-4.6-3.3-4-6.1c0.6-2.8,3.3-4.6,6.1-4c17.6,3.7,34,10.7,48.7,20.9c2.3,1.6,2.9,4.8,1.3,7.1
				C285.4,192.8,283.8,193.5,282.2,193.5z M194.5,171.6c-2.6,0-4.8-1.9-5.1-4.6c-0.3-2.8,1.7-5.4,4.5-5.7c7.1-0.8,14.2-1,21.3-0.7
				c2.8,0.1,5,2.5,4.9,5.4c-0.1,2.8-2.5,5-5.4,4.9c-6.5-0.3-13.2-0.1-19.7,0.7C194.9,171.6,194.7,171.6,194.5,171.6z"/>
		</g>
	</g>
	<g>
		<path d="M363.9,390.9h3.4v22.6h-3.4V390.9z"/>
		<path d="M388.2,390.9h3.2l10.2,16.1h0.1v-16.1h3.4v22.6h-3.2l-10.2-16h-0.1v16h-3.4V390.9z"/>
		<path d="M449.9,390.9h7.9c3.1,0,5.3,1.3,6.9,3.8c0.5,0.8,0.9,1.7,1,2.7c0.1,0.9,0.2,2.5,0.2,4.8c0,2.4-0.1,4.1-0.3,5.1
			c-0.1,0.5-0.2,0.9-0.4,1.3c-0.2,0.4-0.4,0.8-0.6,1.2c-0.7,1.1-1.6,1.9-2.8,2.6c-1.2,0.7-2.6,1.1-4.3,1.1h-7.7V390.9z M453.3,410.3
			h4.1c1.9,0,3.3-0.7,4.2-2c0.4-0.5,0.6-1.1,0.7-1.8c0.1-0.7,0.1-2.1,0.1-4.1c0-2-0.1-3.4-0.1-4.2c-0.1-0.8-0.4-1.5-0.9-2.1
			c-0.9-1.3-2.3-1.9-4-1.9h-4.1V410.3z"/>
		<path d="M497,408.4h-8.6l-1.7,5.1h-3.6l8.2-22.6h2.9l8.2,22.6h-3.6L497,408.4z M496.1,405.4l-3.3-9.9h-0.1l-3.3,9.9H496.1z"/>
		<path d="M522.5,394h-6.2v-3.1h15.8v3.1h-6.2v19.5h-3.4V394z"/>
		<path d="M559.9,408.4h-8.6l-1.7,5.1H546l8.2-22.6h2.9l8.2,22.6h-3.6L559.9,408.4z M558.9,405.4l-3.3-9.9h-0.1l-3.3,9.9H558.9z"/>
		<path d="M605.6,390.9h3.6l3.6,16.1h0.1l4.4-16.1h2.5l4.4,16.1h0.1l3.6-16.1h3.6l-5.6,22.6h-2.9l-4.3-16.3h-0.1l-4.3,16.3h-2.9
			L605.6,390.9z"/>
		<path d="M650.2,390.9h14.4v3.2h-11v6.4h9.4v3h-9.4v6.6h11v3.2h-14.4V390.9z"/>
		<path d="M711.7,394h-6.2v-3.1h15.8v3.1h-6.2v19.5h-3.4V394z"/>
		<path d="M739.9,390.9h8.8c1.9,0,3.4,0.5,4.6,1.5c1.4,1.1,2.2,2.7,2.2,4.8c0,3.1-1.5,5.2-4.4,6.3l5.2,10h-4.1l-4.7-9.7h-4.4v9.7
			h-3.4V390.9z M743.3,400.8h5.2c1.3,0,2.2-0.4,2.9-1.1c0.6-0.7,0.9-1.5,0.9-2.5c0-1.2-0.4-2-1.1-2.6c-0.6-0.5-1.4-0.7-2.5-0.7h-5.4
			V400.8z"/>
		<path d="M775,390.9h3.4v14.6c0,1.5,0.5,2.7,1.3,3.5c0.9,0.8,1.9,1.3,3.3,1.3s2.4-0.4,3.3-1.3c0.8-0.8,1.3-2,1.3-3.5v-14.6h3.4
			v14.9c0,2.4-0.8,4.3-2.3,5.7c-1.5,1.4-3.4,2.2-5.7,2.2c-2.3,0-4.2-0.7-5.7-2.2c-1.6-1.4-2.3-3.3-2.4-5.7V390.9z"/>
		<path d="M818.3,410.3c2.9,0,4.4-1.1,4.5-3.1c0-1.7-1-2.7-2.9-3c-0.9-0.1-1.9-0.3-3-0.4c-1.9-0.3-3.4-1-4.4-2.2
			c-1-1.1-1.6-2.5-1.6-4.2c0-2,0.7-3.6,2-4.8c1.3-1.2,3.1-1.8,5.4-1.8c2.8,0.1,5.3,0.8,7.3,2.3l-1.9,2.8c-1.7-1.1-3.6-1.7-5.6-1.7
			c-1.1,0-1.9,0.3-2.6,0.8c-0.7,0.5-1.1,1.4-1.1,2.4c0,0.7,0.3,1.2,0.8,1.8c0.5,0.5,1.3,0.9,2.4,1.1c0.6,0.1,1.5,0.2,2.5,0.4
			c2.1,0.3,3.7,1,4.7,2.3c1,1.2,1.5,2.6,1.5,4.2c-0.1,4.3-2.8,6.5-7.9,6.6c-3.3,0-6.2-1-8.6-3.1l2.2-2.6
			C813.7,409.5,815.8,410.2,818.3,410.3z"/>
		<path d="M849.8,394h-6.2v-3.1h15.8v3.1h-6.2v19.5h-3.4V394z"/>
	</g>
	<circle class="st2" cx="206.3" cy="100.9" r="11"/>
	<g>
		<circle class="st2" cx="91.4" cy="142.7" r="11"/>
	</g>
	<g>
		<circle class="st2" cx="54.4" cy="188.2" r="11"/>
	</g>
	<circle class="st2" cx="26.6" cy="305.4" r="11"/>
	<circle class="st2" cx="230.9" cy="166.7" r="6.5"/>
	<circle class="st2" cx="190.1" cy="167" r="6.5"/>
	<g>
		<circle class="st2" cx="114.7" cy="206.3" r="6.5"/>
	</g>
	<g>
		<circle class="st2" cx="92.9" cy="240" r="6.5"/>
	</g>
	<circle class="st2" cx="84.4" cy="325.2" r="6.5"/>
	<circle class="st2" cx="100.1" cy="362.2" r="6.5"/>
	<circle class="st2" cx="166.7" cy="415.2" r="6.5"/>
	<circle class="st2" cx="206.9" cy="422.6" r="6.5"/>
	<circle class="st2" cx="288.5" cy="395.1" r="6.5"/>
	<circle class="st2" cx="124.4" cy="449.8" r="11"/>
	<circle class="st2" cx="305.5" cy="445.2" r="11"/>
	<circle class="st2" cx="236.9" cy="132.6" r="8.4"/>
	<circle class="st2" cx="180.5" cy="132.6" r="8.4"/>
	<g>
		<circle class="st2" cx="89.8" cy="185.3" r="8.4"/>
	</g>
	<g>
		<circle class="st2" cx="64.2" cy="228.2" r="8.4"/>
	</g>
	<circle class="st2" cx="57.5" cy="331.8" r="8.4"/>
	<circle class="st2" cx="79.1" cy="378.1" r="8.4"/>
	<circle class="st2" cx="40.9" cy="361.8" r="8.4"/>
	<circle class="st2" cx="182.1" cy="468.8" r="8.4"/>
	<circle class="st2" cx="164.4" cy="441.1" r="8.4"/>
	<circle class="st2" cx="217.1" cy="447.2" r="8.4"/>
	<circle class="st2" cx="315.1" cy="408.5" r="8.4"/>
	<circle class="st2" cx="263.5" cy="109.6" r="11"/>
</g>
</svg>
