<?xml version="1.0" encoding="utf-8"?>
<!-- Generator: Adobe Illustrator 22.0.0, SVG Export Plug-In . SVG Version: 6.00 Build 0)  -->
<svg version="1.1" id="Layer_1" xmlns="http://www.w3.org/2000/svg" xmlns:xlink="http://www.w3.org/1999/xlink" x="0px" y="0px"
	 viewBox="0 0 1133.9 566.9" style="enable-background:new 0 0 1133.9 566.9;" xml:space="preserve">
<style type="text/css">
	.st0{fill:#01B4E1;}
	.st1{fill:#002D35;}
	
		.st2{fill:none;stroke:url(#SVGID_1_);stroke-width:4.542;stroke-linecap:round;stroke-linejoin:round;stroke-miterlimit:1;stroke-dasharray:22.7101,9.0841,9.0841,15.8971;}
	
		.st3{fill:none;stroke:url(#SVGID_2_);stroke-width:3.9286;stroke-linecap:round;stroke-linejoin:round;stroke-miterlimit:1;stroke-dasharray:19.6432,7.8573,7.8573,13.7502;}
	
		.st4{fill:none;stroke:url(#SVGID_3_);stroke-width:3.1804;stroke-linecap:round;stroke-linejoin:round;stroke-miterlimit:1;stroke-dasharray:15.902,6.3608,6.3608,11.1314;}
	.st5{fill:#58595B;}
</style>
<g>
	<g>
		<path class="st0" d="M327.1,259.2c0,40.4-12.4,86.1-36.6,110.3c-11.8,11.8-25.6,18-42.8,18c-41.4,0-47.6-40.1-47.6-60
			c0-37.9,12.4-83.7,37.7-108.2c11-10.8,24.8-17.5,42.3-17.5C321.4,201.8,327.1,238.2,327.1,259.2z M264.9,241.4
			c-15.3,15.3-24,64.3-24,91.2c0,7.8,1.3,20.2,12.6,20.2c3,0,6.2-1.6,8.9-4.3c16.4-16.4,23.7-74.3,23.7-93.7c0-7-1.6-18.3-11.3-18.3
			C271.4,236.6,268.1,238.2,264.9,241.4z"/>
		<path class="st0" d="M363.4,206.7c12.1-2.2,27.7-3.5,39.8-3.5c12.4,0,32.3,2.2,44.7,15.3c8.1,8.6,11.6,22.6,11.6,32
			c0,27.5-13.5,47.1-25.6,56.8c-12.9,10.2-31.5,15.1-46.8,15.1c-2.2,0-4.6,0-7,0l-12.1,63h-38.8L363.4,206.7z M386.6,289.9
			c1.6,0,3.2,0,4.6,0c23.1,0,28.5-22.9,28.5-36.6c0-10.5-5.1-17.8-15.6-17.8c-3,0-5.7,0-7.3,0.5L386.6,289.9z"/>
		<path class="st0" d="M549.9,307.9H512l-8.6,42.3h43.6l-7,35.3h-82.9L491.8,204h79.9l-7,35h-39.3l-7.5,35.5h38.5L549.9,307.9z"/>
		<path class="st0" d="M566.1,385.4L600.8,204h36.1l11.8,60.8c5.1,26.4,8.1,43.9,9.2,58.1h0.5c2.2-20.2,5.7-55.4,12.1-89.6l5.7-29.3
			H710l-34.7,181.4h-33.6l-12.6-56c-6.5-28.3-7.5-39-9.4-61.9h-0.5c-2.2,18-6.5,51.1-13.2,86.7l-5.9,31.2H566.1z"/>
		<path class="st0" d="M812.6,380c-10.8,3.8-23.1,7-38.5,7c-22.9,0-36.3-7-46-18.8c-9.4-11-14.3-28.8-14.3-44.9
			c0-39,13.2-72.4,33.9-94.7c15.1-16.4,37.4-26.1,61.6-26.1c16.7,0,26.1,3,31.5,5.1l-12.4,35.3c-4.3-2.2-12.9-4-20.5-4
			c-12.1,0-20.7,3.5-27.5,10.2c-13.7,13.7-24.8,39.6-24.8,74.3c0,19.6,6.7,29.6,17.5,29.6c3.2,0,5.4,0,8.3-0.5l7-38.5h-13.2
			l6.5-31.8h49.2L812.6,380z"/>
		<path class="st0" d="M970.3,259.2c0,40.4-12.4,86.1-36.6,110.3c-11.8,11.8-25.6,18-42.8,18c-41.4,0-47.6-40.1-47.6-60
			c0-37.9,12.4-83.7,37.7-108.2c11-10.8,24.8-17.5,42.3-17.5C964.6,201.8,970.3,238.2,970.3,259.2z M908.1,241.4
			c-15.3,15.3-24,64.3-24,91.2c0,7.8,1.3,20.2,12.6,20.2c3,0,6.2-1.6,8.9-4.3c16.4-16.4,23.7-74.3,23.7-93.7c0-7-1.6-18.3-11.3-18.3
			C914.6,236.6,911.3,238.2,908.1,241.4z"/>
		<path class="st0" d="M993.7,385.4L988.3,204h44.4l-4.3,83.4c-0.5,16.1-2.4,40.4-3.2,54.6h0.5c3.5-14.3,10.2-38.5,15.6-54.6
			L1069,204h44.1l-75.9,181.4H993.7z"/>
	</g>
	<g>
		<path class="st1" d="M472.7,134.4h5.9v22.1h0.2c1.2-1.8,2.5-3.4,3.6-4.9l14-17.2h7.3l-16.6,19.5l17.9,26.4h-7l-15.1-22.5l-4.4,5
			v17.5h-5.9V134.4z"/>
		<path class="st1" d="M509.5,134.9c2.9-0.5,6.6-0.9,11.4-0.9c5.9,0,10.1,1.4,12.9,3.8c2.5,2.2,4,5.5,4,9.6c0,4.2-1.2,7.4-3.5,9.8
			c-3.1,3.3-8.2,5-14,5c-1.8,0-3.4-0.1-4.8-0.4v18.4h-5.9V134.9z M515.5,157.1c1.3,0.3,2.9,0.5,4.9,0.5c7.1,0,11.5-3.5,11.5-9.8
			c0-6.1-4.3-9-10.8-9c-2.6,0-4.6,0.2-5.6,0.5V157.1z"/>
		<path class="st1" d="M599.4,156.9c0,15.8-9.6,24.2-21.3,24.2c-12.1,0-20.6-9.4-20.6-23.3c0-14.6,9.1-24.1,21.3-24.1
			C591.3,133.7,599.4,143.2,599.4,156.9z M563.8,157.6c0,9.8,5.3,18.6,14.6,18.6c9.4,0,14.7-8.6,14.7-19.1c0-9.1-4.8-18.6-14.6-18.6
			C568.7,138.5,563.8,147.5,563.8,157.6z"/>
		<path class="st1" d="M607.1,134.9c2.9-0.5,6.6-0.9,11.4-0.9c5.9,0,10.1,1.4,12.9,3.8c2.5,2.2,4,5.5,4,9.6c0,4.2-1.2,7.4-3.5,9.8
			c-3.1,3.3-8.2,5-14,5c-1.8,0-3.4-0.1-4.8-0.4v18.4h-5.9V134.9z M613,157.1c1.3,0.3,2.9,0.5,4.9,0.5c7.1,0,11.5-3.5,11.5-9.8
			c0-6.1-4.3-9-10.8-9c-2.6,0-4.6,0.2-5.6,0.5V157.1z"/>
		<path class="st1" d="M667,158.8h-17.8v16.5h19.9v5h-25.8v-45.9H668v5h-18.8v14.5H667V158.8z"/>
		<path class="st1" d="M676.8,180.3v-45.9h6.5l14.7,23.2c3.4,5.4,6.1,10.2,8.2,14.9l0.1-0.1c-0.5-6.1-0.7-11.7-0.7-18.8v-19.2h5.6
			v45.9h-6L690.6,157c-3.2-5.1-6.3-10.3-8.6-15.3l-0.2,0.1c0.3,5.8,0.5,11.3,0.5,18.9v19.6H676.8z"/>
		<path class="st1" d="M736,135c3.6-0.5,7.9-1,12.6-1c8.5,0,14.6,2,18.6,5.7c4.1,3.7,6.5,9,6.5,16.5c0,7.5-2.3,13.6-6.6,17.8
			c-4.3,4.3-11.4,6.6-20.3,6.6c-4.2,0-7.8-0.2-10.8-0.5V135z M741.9,175.6c1.5,0.3,3.7,0.3,6,0.3c12.7,0,19.5-7.1,19.5-19.5
			c0.1-10.8-6.1-17.7-18.6-17.7c-3.1,0-5.4,0.3-6.9,0.6V175.6z"/>
		<path class="st1" d="M787.8,165.8l-4.8,14.4h-6.1l15.6-45.9h7.1l15.7,45.9h-6.3l-4.9-14.4H787.8z M802.8,161.2l-4.5-13.2
			c-1-3-1.7-5.7-2.4-8.4h-0.1c-0.7,2.7-1.4,5.5-2.3,8.3l-4.5,13.3H802.8z"/>
		<path class="st1" d="M825.5,139.4h-13.9v-5h34v5h-14v40.8h-6V139.4z"/>
		<path class="st1" d="M852.9,165.8l-4.8,14.4H842l15.6-45.9h7.1l15.7,45.9h-6.3l-4.9-14.4H852.9z M867.9,161.2l-4.5-13.2
			c-1-3-1.7-5.7-2.4-8.4h-0.1c-0.7,2.7-1.4,5.5-2.3,8.3l-4.5,13.3H867.9z"/>
		<path class="st1" d="M901.6,134.9c2.9-0.5,6.6-0.9,11.4-0.9c5.9,0,10.1,1.4,12.9,3.8c2.5,2.2,4,5.5,4,9.6c0,4.2-1.2,7.4-3.5,9.8
			c-3.1,3.3-8.2,5-14,5c-1.8,0-3.4-0.1-4.8-0.4v18.4h-5.9V134.9z M907.5,157.1c1.3,0.3,2.9,0.5,4.9,0.5c7.1,0,11.5-3.5,11.5-9.8
			c0-6.1-4.3-9-10.8-9c-2.6,0-4.6,0.2-5.6,0.5V157.1z"/>
		<path class="st1" d="M977,156.9c0,15.8-9.6,24.2-21.3,24.2c-12.1,0-20.6-9.4-20.6-23.3c0-14.6,9.1-24.1,21.3-24.1
			C968.9,133.7,977,143.2,977,156.9z M941.4,157.6c0,9.8,5.3,18.6,14.6,18.6c9.4,0,14.7-8.6,14.7-19.1c0-9.1-4.8-18.6-14.6-18.6
			C946.3,138.5,941.4,147.5,941.4,157.6z"/>
		<path class="st1" d="M984.6,135c3-0.6,7.3-1,11.4-1c6.3,0,10.4,1.2,13.3,3.7c2.3,2,3.6,5.2,3.6,8.7c0,6.1-3.8,10.1-8.6,11.7v0.2
			c3.5,1.2,5.6,4.5,6.7,9.3c1.5,6.4,2.6,10.8,3.5,12.6h-6.1c-0.7-1.3-1.8-5.2-3.1-11c-1.4-6.3-3.8-8.7-9.2-8.9h-5.6v19.9h-5.9V135z
			 M990.6,155.9h6.1c6.3,0,10.3-3.5,10.3-8.7c0-5.9-4.3-8.5-10.5-8.6c-2.9,0-4.9,0.3-5.9,0.5V155.9z"/>
		<path class="st1" d="M1030.6,139.4h-13.9v-5h34v5h-14v40.8h-6V139.4z"/>
		<path class="st1" d="M1058,165.8l-4.8,14.4h-6.1l15.6-45.9h7.1l15.7,45.9h-6.3l-4.9-14.4H1058z M1073.1,161.2l-4.5-13.2
			c-1-3-1.7-5.7-2.4-8.4h-0.1c-0.7,2.7-1.4,5.5-2.3,8.3l-4.5,13.3H1073.1z"/>
		<path class="st1" d="M1092.2,134.4h5.9v40.9h19.6v5h-25.5V134.4z"/>
	</g>
	<g>
		
			<linearGradient id="SVGID_1_" gradientUnits="userSpaceOnUse" x1="14.2834" y1="236.9109" x2="440.6957" y2="236.9109" gradientTransform="matrix(0.9823 -0.1872 0.1872 0.9823 -24.0525 100.7116)">
			<stop  offset="0" style="stop-color:#00AEEF"/>
			<stop  offset="1" style="stop-color:#8DC63F"/>
		</linearGradient>
		<path class="st2" d="M425.1,115.4c-54.4-50.5-129.8-72.2-202.7-58.3C96.4,81.1,12.6,204.4,36.6,330.3s147.3,209.8,273.2,185.8
			c25.5-4.9,50-13.9,72.5-26.9"/>
		
			<linearGradient id="SVGID_2_" gradientUnits="userSpaceOnUse" x1="225.8247" y1="-438.4709" x2="594.6516" y2="-438.4709" gradientTransform="matrix(0.933 -0.3598 0.3598 0.933 24.5598 853.6755)">
			<stop  offset="0" style="stop-color:#00AEEF"/>
			<stop  offset="1" style="stop-color:#8DC63F"/>
		</linearGradient>
		<path class="st3" d="M376.7,119.6C322.6,85,255.1,78.2,195.2,101.3C91.7,141.2,39.4,259.2,79.3,362.6s157.8,155.7,261.3,115.8
			c20.9-8.1,40.4-19.6,57.6-34.1"/>
		
			<linearGradient id="SVGID_3_" gradientUnits="userSpaceOnUse" x1="585.4837" y1="-872.7529" x2="884.0646" y2="-872.7529" gradientTransform="matrix(0.9454 -0.326 0.326 0.9454 -158.9093 1366.051)">
			<stop  offset="0" style="stop-color:#00AEEF"/>
			<stop  offset="1" style="stop-color:#8DC63F"/>
		</linearGradient>
		<path class="st4" d="M359.2,161.7c-42.8-29.6-97.2-37-146.3-20.1c-84.8,29.3-130.6,123.1-101.3,208s123.1,130.6,208,101.3
			c17.2-5.9,33.3-14.7,47.6-25.9"/>
	</g>
	<g>
		<path class="st5" d="M463.2,419.5h4.4v28.8h-4.4V419.5z"/>
		<path class="st5" d="M494.2,419.5h4.1l13,20.4h0.1v-20.4h4.4v28.8h-4.1l-13-20.4h-0.1v20.4h-4.4V419.5z"/>
		<path class="st5" d="M572.7,419.5h10.1c3.9,0,6.8,1.6,8.8,4.9c0.7,1.1,1.1,2.2,1.3,3.4c0.1,1.2,0.2,3.2,0.2,6.1
			c0,3.1-0.1,5.2-0.3,6.5c-0.1,0.6-0.3,1.2-0.5,1.7c-0.2,0.5-0.5,1-0.8,1.5c-0.8,1.4-2,2.5-3.5,3.4c-1.5,0.9-3.3,1.4-5.5,1.4h-9.8
			V419.5z M577.1,444.1h5.2c2.4,0,4.2-0.8,5.3-2.5c0.5-0.6,0.8-1.4,0.9-2.3c0.1-0.9,0.2-2.7,0.2-5.2c0-2.5-0.1-4.3-0.2-5.4
			c-0.2-1.1-0.5-2-1.1-2.6c-1.2-1.7-2.9-2.5-5.1-2.4h-5.2V444.1z"/>
		<path class="st5" d="M632.8,441.8h-10.9l-2.2,6.4H615l10.5-28.8h3.6l10.5,28.8H635L632.8,441.8z M631.5,438l-4.2-12.6h-0.1
			l-4.2,12.6H631.5z"/>
		<path class="st5" d="M665.1,423.4h-7.9v-3.9h20.1v3.9h-7.9v24.9h-4.4V423.4z"/>
		<path class="st5" d="M712.8,441.8h-10.9l-2.2,6.4h-4.6l10.5-28.8h3.7l10.5,28.8H715L712.8,441.8z M711.6,438l-4.2-12.6h-0.1
			l-4.2,12.6H711.6z"/>
		<path class="st5" d="M771,419.5h4.6l4.5,20.4h0.1l5.6-20.4h3.2l5.6,20.4h0.1l4.5-20.4h4.6l-7.2,28.8h-3.7l-5.5-20.7h-0.1
			l-5.5,20.7h-3.6L771,419.5z"/>
		<path class="st5" d="M827.8,419.5h18.4v4.1h-14v8.2h11.9v3.9h-11.9v8.4h14v4.1h-18.4V419.5z"/>
		<path class="st5" d="M906,423.4h-7.9v-3.9h20.1v3.9h-7.9v24.9H906V423.4z"/>
		<path class="st5" d="M941.9,419.5h11.2c2.4,0,4.3,0.6,5.9,1.9c1.8,1.4,2.8,3.5,2.9,6.1c-0.1,3.9-1.9,6.6-5.6,8l6.7,12.8h-5.2
			l-5.9-12.3h-5.6v12.3h-4.4V419.5z M946.3,432.1h6.6c1.6,0,2.8-0.5,3.7-1.4c0.8-0.9,1.2-1.9,1.2-3.2c0-1.5-0.5-2.6-1.4-3.3
			c-0.7-0.6-1.8-0.9-3.2-0.9h-6.8V432.1z"/>
		<path class="st5" d="M986.6,419.5h4.4V438c0,2,0.6,3.5,1.7,4.5c1.1,1.1,2.5,1.6,4.2,1.6s3.1-0.5,4.2-1.6c1.1-1,1.6-2.5,1.7-4.5
			v-18.5h4.4v19c0,3-1,5.4-2.9,7.2c-1.9,1.8-4.3,2.8-7.3,2.8c-2.9,0-5.3-1-7.2-2.8c-2-1.8-3-4.2-3-7.2V419.5z"/>
		<path class="st5" d="M1041.7,444.1c3.7-0.1,5.6-1.4,5.7-4c0-2.1-1.2-3.4-3.7-3.9c-1.2-0.2-2.4-0.3-3.8-0.5
			c-2.5-0.4-4.4-1.3-5.6-2.7c-1.3-1.5-2-3.2-2-5.3c0-2.5,0.8-4.5,2.5-6.1c1.6-1.5,3.9-2.3,6.9-2.3c3.6,0.1,6.7,1.1,9.3,3l-2.4,3.6
			c-2.2-1.4-4.5-2.2-7.1-2.2c-1.3,0-2.5,0.3-3.4,1c-0.9,0.7-1.4,1.7-1.4,3.1c0,0.8,0.3,1.6,1,2.2c0.6,0.7,1.7,1.2,3.1,1.4
			c0.8,0.1,1.9,0.3,3.2,0.5c2.7,0.4,4.7,1.3,6,2.9c1.3,1.5,1.9,3.3,1.9,5.4c-0.1,5.5-3.5,8.3-10.1,8.4c-4.3,0-7.9-1.3-11-3.9
			l2.9-3.3C1035.9,443.2,1038.6,444.1,1041.7,444.1z"/>
		<path class="st5" d="M1081.9,423.4h-7.9v-3.9h20.1v3.9h-7.9v24.9h-4.4V423.4z"/>
	</g>
	<circle cx="262.6" cy="50.3" r="14"/>
	<circle cx="116.3" cy="103.5" r="14"/>
	<circle cx="69.2" cy="161.4" r="14"/>
	<circle cx="33.8" cy="310.7" r="14"/>
	<circle cx="293.9" cy="134.1" r="8.2"/>
	<circle cx="241.9" cy="134.5" r="8.2"/>
	<circle cx="146" cy="184.4" r="8.2"/>
	<circle cx="118.2" cy="227.3" r="8.2"/>
	<circle cx="107.4" cy="335.9" r="8.2"/>
	<circle cx="127.4" cy="382.9" r="8.2"/>
	<circle cx="212.2" cy="450.5" r="8.2"/>
	<circle cx="263.4" cy="459.9" r="8.2"/>
	<circle cx="367.2" cy="424.8" r="8.2"/>
	<circle cx="158.4" cy="494.4" r="14"/>
	<circle cx="388.9" cy="488.6" r="14"/>
	<circle cx="301.5" cy="90.7" r="10.7"/>
	<circle cx="229.8" cy="90.7" r="10.7"/>
	<circle cx="114.2" cy="157.7" r="10.7"/>
	<circle cx="81.7" cy="212.4" r="10.7"/>
	<circle cx="73.1" cy="344.2" r="10.7"/>
	<circle cx="100.7" cy="403.2" r="10.7"/>
	<circle cx="52" cy="382.4" r="10.7"/>
	<circle cx="231.8" cy="518.7" r="10.7"/>
	<circle cx="209.2" cy="483.4" r="10.7"/>
	<circle cx="276.3" cy="491.2" r="10.7"/>
	<circle cx="401.2" cy="441.9" r="10.7"/>
	<circle cx="335.4" cy="61.4" r="14"/>
</g>
</svg>
